<?xml version="1.0" encoding="utf-8" standalone="no"?>
<!DOCTYPE svg PUBLIC "-//W3C//DTD SVG 1.1//EN"
  "http://www.w3.org/Graphics/SVG/1.1/DTD/svg11.dtd">
<svg xmlns:xlink="http://www.w3.org/1999/xlink" width="432pt" height="288pt" viewBox="0 0 432 288" xmlns="http://www.w3.org/2000/svg" version="1.1">
 <metadata>
  <rdf:RDF xmlns:dc="http://purl.org/dc/elements/1.1/" xmlns:cc="http://creativecommons.org/ns#" xmlns:rdf="http://www.w3.org/1999/02/22-rdf-syntax-ns#">
   <cc:Work>
    <dc:type rdf:resource="http://purl.org/dc/dcmitype/StillImage"/>
    <dc:date>2023-07-14T14:18:03.337272</dc:date>
    <dc:format>image/svg+xml</dc:format>
    <dc:creator>
     <cc:Agent>
      <dc:title>Matplotlib v3.7.1, https://matplotlib.org/</dc:title>
     </cc:Agent>
    </dc:creator>
   </cc:Work>
  </rdf:RDF>
 </metadata>
 <defs>
  <style type="text/css">*{stroke-linejoin: round; stroke-linecap: butt}</style>
 </defs>
 <g id="figure_1">
  <g id="patch_1">
   <path d="M 0 288 
L 432 288 
L 432 0 
L 0 0 
z
" style="fill: #ffffff"/>
  </g>
  <g id="axes_1">
   <g id="patch_2">
    <path d="M 22.72524 124.321635 
L 205.94386 124.321635 
L 205.94386 3.00024 
L 22.72524 3.00024 
z
" style="fill: #ffffff"/>
   </g>
   <g id="matplotlib.axis_1">
    <g id="xtick_1">
     <g id="line2d_1">
      <defs>
       <path id="m1b9984096a" d="M 0 0 
L 0 3.5 
" style="stroke: #000000; stroke-width: 0.8"/>
      </defs>
      <g>
       <use xlink:href="#m1b9984096a" x="31.053359" y="124.321635" style="stroke: #000000; stroke-width: 0.8"/>
      </g>
     </g>
     <g id="text_1">
      <!-- Day 1 -->
      <g transform="translate(16.409609 138.920073) scale(0.1 -0.1)">
       <defs>
        <path id="DejaVuSans-44" d="M 1259 4147 
L 1259 519 
L 2022 519 
Q 2988 519 3436 956 
Q 3884 1394 3884 2338 
Q 3884 3275 3436 3711 
Q 2988 4147 2022 4147 
L 1259 4147 
z
M 628 4666 
L 1925 4666 
Q 3281 4666 3915 4102 
Q 4550 3538 4550 2338 
Q 4550 1131 3912 565 
Q 3275 0 1925 0 
L 628 0 
L 628 4666 
z
" transform="scale(0.015625)"/>
        <path id="DejaVuSans-61" d="M 2194 1759 
Q 1497 1759 1228 1600 
Q 959 1441 959 1056 
Q 959 750 1161 570 
Q 1363 391 1709 391 
Q 2188 391 2477 730 
Q 2766 1069 2766 1631 
L 2766 1759 
L 2194 1759 
z
M 3341 1997 
L 3341 0 
L 2766 0 
L 2766 531 
Q 2569 213 2275 61 
Q 1981 -91 1556 -91 
Q 1019 -91 701 211 
Q 384 513 384 1019 
Q 384 1609 779 1909 
Q 1175 2209 1959 2209 
L 2766 2209 
L 2766 2266 
Q 2766 2663 2505 2880 
Q 2244 3097 1772 3097 
Q 1472 3097 1187 3025 
Q 903 2953 641 2809 
L 641 3341 
Q 956 3463 1253 3523 
Q 1550 3584 1831 3584 
Q 2591 3584 2966 3190 
Q 3341 2797 3341 1997 
z
" transform="scale(0.015625)"/>
        <path id="DejaVuSans-79" d="M 2059 -325 
Q 1816 -950 1584 -1140 
Q 1353 -1331 966 -1331 
L 506 -1331 
L 506 -850 
L 844 -850 
Q 1081 -850 1212 -737 
Q 1344 -625 1503 -206 
L 1606 56 
L 191 3500 
L 800 3500 
L 1894 763 
L 2988 3500 
L 3597 3500 
L 2059 -325 
z
" transform="scale(0.015625)"/>
        <path id="DejaVuSans-20" transform="scale(0.015625)"/>
        <path id="DejaVuSans-31" d="M 794 531 
L 1825 531 
L 1825 4091 
L 703 3866 
L 703 4441 
L 1819 4666 
L 2450 4666 
L 2450 531 
L 3481 531 
L 3481 0 
L 794 0 
L 794 531 
z
" transform="scale(0.015625)"/>
       </defs>
       <use xlink:href="#DejaVuSans-44"/>
       <use xlink:href="#DejaVuSans-61" x="77.001953"/>
       <use xlink:href="#DejaVuSans-79" x="138.28125"/>
       <use xlink:href="#DejaVuSans-20" x="197.460938"/>
       <use xlink:href="#DejaVuSans-31" x="229.248047"/>
      </g>
     </g>
    </g>
    <g id="xtick_2">
     <g id="line2d_2">
      <g>
       <use xlink:href="#m1b9984096a" x="114.363477" y="124.321635" style="stroke: #000000; stroke-width: 0.8"/>
      </g>
     </g>
     <g id="text_2">
      <!-- Day 10 -->
      <g transform="translate(96.538477 138.920073) scale(0.1 -0.1)">
       <defs>
        <path id="DejaVuSans-30" d="M 2034 4250 
Q 1547 4250 1301 3770 
Q 1056 3291 1056 2328 
Q 1056 1369 1301 889 
Q 1547 409 2034 409 
Q 2525 409 2770 889 
Q 3016 1369 3016 2328 
Q 3016 3291 2770 3770 
Q 2525 4250 2034 4250 
z
M 2034 4750 
Q 2819 4750 3233 4129 
Q 3647 3509 3647 2328 
Q 3647 1150 3233 529 
Q 2819 -91 2034 -91 
Q 1250 -91 836 529 
Q 422 1150 422 2328 
Q 422 3509 836 4129 
Q 1250 4750 2034 4750 
z
" transform="scale(0.015625)"/>
       </defs>
       <use xlink:href="#DejaVuSans-44"/>
       <use xlink:href="#DejaVuSans-61" x="77.001953"/>
       <use xlink:href="#DejaVuSans-79" x="138.28125"/>
       <use xlink:href="#DejaVuSans-20" x="197.460938"/>
       <use xlink:href="#DejaVuSans-31" x="229.248047"/>
       <use xlink:href="#DejaVuSans-30" x="292.871094"/>
      </g>
     </g>
    </g>
    <g id="xtick_3">
     <g id="line2d_3">
      <g>
       <use xlink:href="#m1b9984096a" x="197.673595" y="124.321635" style="stroke: #000000; stroke-width: 0.8"/>
      </g>
     </g>
     <g id="text_3">
      <!-- Day 20 -->
      <g transform="translate(179.848595 138.920073) scale(0.1 -0.1)">
       <defs>
        <path id="DejaVuSans-32" d="M 1228 531 
L 3431 531 
L 3431 0 
L 469 0 
L 469 531 
Q 828 903 1448 1529 
Q 2069 2156 2228 2338 
Q 2531 2678 2651 2914 
Q 2772 3150 2772 3378 
Q 2772 3750 2511 3984 
Q 2250 4219 1831 4219 
Q 1534 4219 1204 4116 
Q 875 4013 500 3803 
L 500 4441 
Q 881 4594 1212 4672 
Q 1544 4750 1819 4750 
Q 2544 4750 2975 4387 
Q 3406 4025 3406 3419 
Q 3406 3131 3298 2873 
Q 3191 2616 2906 2266 
Q 2828 2175 2409 1742 
Q 1991 1309 1228 531 
z
" transform="scale(0.015625)"/>
       </defs>
       <use xlink:href="#DejaVuSans-44"/>
       <use xlink:href="#DejaVuSans-61" x="77.001953"/>
       <use xlink:href="#DejaVuSans-79" x="138.28125"/>
       <use xlink:href="#DejaVuSans-20" x="197.460938"/>
       <use xlink:href="#DejaVuSans-32" x="229.248047"/>
       <use xlink:href="#DejaVuSans-30" x="292.871094"/>
      </g>
     </g>
    </g>
   </g>
   <g id="matplotlib.axis_2">
    <g id="ytick_1">
     <g id="line2d_4">
      <defs>
       <path id="mf02070465c" d="M 0 0 
L -3.5 0 
" style="stroke: #000000; stroke-width: 0.8"/>
      </defs>
      <g>
       <use xlink:href="#mf02070465c" x="22.72524" y="102.57832" style="stroke: #000000; stroke-width: 0.8"/>
      </g>
     </g>
     <g id="text_4">
      <!-- 5 -->
      <g transform="translate(9.36274 106.377539) scale(0.1 -0.1)">
       <defs>
        <path id="DejaVuSans-35" d="M 691 4666 
L 3169 4666 
L 3169 4134 
L 1269 4134 
L 1269 2991 
Q 1406 3038 1543 3061 
Q 1681 3084 1819 3084 
Q 2600 3084 3056 2656 
Q 3513 2228 3513 1497 
Q 3513 744 3044 326 
Q 2575 -91 1722 -91 
Q 1428 -91 1123 -41 
Q 819 9 494 109 
L 494 744 
Q 775 591 1075 516 
Q 1375 441 1709 441 
Q 2250 441 2565 725 
Q 2881 1009 2881 1497 
Q 2881 1984 2565 2268 
Q 2250 2553 1709 2553 
Q 1456 2553 1204 2497 
Q 953 2441 691 2322 
L 691 4666 
z
" transform="scale(0.015625)"/>
       </defs>
       <use xlink:href="#DejaVuSans-35"/>
      </g>
     </g>
    </g>
    <g id="ytick_2">
     <g id="line2d_5">
      <g>
       <use xlink:href="#mf02070465c" x="22.72524" y="76.318277" style="stroke: #000000; stroke-width: 0.8"/>
      </g>
     </g>
     <g id="text_5">
      <!-- 10 -->
      <g transform="translate(3.00024 80.117496) scale(0.1 -0.1)">
       <use xlink:href="#DejaVuSans-31"/>
       <use xlink:href="#DejaVuSans-30" x="63.623047"/>
      </g>
     </g>
    </g>
    <g id="ytick_3">
     <g id="line2d_6">
      <g>
       <use xlink:href="#mf02070465c" x="22.72524" y="50.058235" style="stroke: #000000; stroke-width: 0.8"/>
      </g>
     </g>
     <g id="text_6">
      <!-- 15 -->
      <g transform="translate(3.00024 53.857454) scale(0.1 -0.1)">
       <use xlink:href="#DejaVuSans-31"/>
       <use xlink:href="#DejaVuSans-35" x="63.623047"/>
      </g>
     </g>
    </g>
    <g id="ytick_4">
     <g id="line2d_7">
      <g>
       <use xlink:href="#mf02070465c" x="22.72524" y="23.798193" style="stroke: #000000; stroke-width: 0.8"/>
      </g>
     </g>
     <g id="text_7">
      <!-- 20 -->
      <g transform="translate(3.00024 27.597411) scale(0.1 -0.1)">
       <use xlink:href="#DejaVuSans-32"/>
       <use xlink:href="#DejaVuSans-30" x="63.623047"/>
      </g>
     </g>
    </g>
   </g>
   <g id="line2d_8">
    <path d="M 31.053359 81.202647 
L 31.111213 78.524121 
L 31.169068 79.154362 
L 31.226922 78.996803 
L 31.34263 80.835003 
L 31.400485 74.847716 
L 31.458339 77.683801 
L 31.516193 81.150126 
L 31.574047 74.007396 
L 31.631902 74.742674 
L 31.74761 80.519885 
L 31.979027 86.822294 
L 32.210444 94.700307 
L 32.326153 93.544866 
L 32.384007 91.969263 
L 32.441861 95.015427 
L 32.499715 94.962909 
L 32.673278 90.288619 
L 32.731132 84.774009 
L 32.788987 86.979856 
L 32.846841 85.929453 
L 32.962549 89.92098 
L 33.020404 88.345377 
L 33.078258 89.50082 
L 33.251821 95.593149 
L 33.309675 93.124704 
L 33.367529 93.229744 
L 33.425383 94.122585 
L 33.483238 93.754946 
L 33.541092 93.754946 
L 33.598946 94.175107 
L 33.6568 93.649906 
L 33.946072 82.778245 
L 34.003926 84.879052 
L 34.06178 84.19629 
L 34.119634 84.826531 
L 34.177489 80.835003 
L 34.235343 84.19629 
L 34.46676 93.124704 
L 34.524614 90.866341 
L 34.698177 85.036611 
L 34.756031 85.19417 
L 34.87174 83.040847 
L 34.929594 84.40637 
L 35.103157 92.599503 
L 35.161011 87.557575 
L 35.218865 89.81594 
L 35.276719 89.92098 
L 35.392428 91.023902 
L 35.56599 88.135296 
L 35.623845 87.032375 
L 35.681699 87.294976 
L 35.913116 90.02602 
L 35.97097 85.876931 
L 36.028824 87.820176 
L 36.202387 92.914623 
L 36.260241 90.446181 
L 36.318096 90.761301 
L 36.433804 89.763419 
L 36.491658 90.813822 
L 36.549513 90.656261 
L 36.665221 88.345377 
L 36.723075 89.448299 
L 36.838784 84.984089 
L 36.896638 86.979856 
L 36.954492 87.662615 
L 37.128055 98.744354 
L 37.243764 96.85363 
L 37.301618 93.754946 
L 37.359472 94.700307 
L 37.590889 88.713018 
L 37.648743 82.148005 
L 37.706598 85.141653 
L 37.822306 83.828651 
L 37.938015 85.246691 
L 38.111577 81.570286 
L 38.227286 73.902353 
L 38.28514 80.047204 
L 38.342994 77.158598 
L 38.400849 75.530478 
L 38.458703 76.42332 
L 38.574411 66.076862 
L 38.805828 77.84136 
L 38.863683 76.318277 
L 38.921537 79.627043 
L 38.979391 76.790959 
L 39.037245 75.110318 
L 39.326517 90.078539 
L 39.500079 52.211558 
L 39.615788 49.795634 
L 39.789351 55.730404 
L 39.962913 53.419522 
L 40.020768 53.209442 
L 40.078622 59.301771 
L 40.252185 47.117108 
L 40.310039 51.003598 
L 40.367893 48.22003 
L 40.425747 49.165393 
L 40.483602 48.22003 
L 40.541456 54.049763 
L 40.59931 49.480516 
L 40.830727 58.724047 
L 40.888581 55.782925 
L 41.00429 59.984533 
L 41.062144 59.616889 
L 41.235707 49.165393 
L 41.293561 50.530917 
L 41.351415 53.94472 
L 41.582832 39.029015 
L 41.640687 39.711782 
L 41.698541 35.720254 
L 41.756395 47.58979 
L 41.814249 43.913385 
L 41.872104 45.594026 
L 41.929958 52.421638 
L 41.987812 47.957434 
L 42.045666 47.169629 
L 42.103521 52.421638 
L 42.161375 48.955313 
L 42.219229 47.012071 
L 42.450646 59.144207 
L 42.624209 51.371237 
L 42.797772 47.852391 
L 42.91348 47.904912 
L 43.087043 50.320836 
L 43.144897 54.102284 
L 43.202751 39.921857 
L 43.260606 53.73464 
L 43.31846 51.948956 
L 43.376314 51.161157 
L 43.434168 58.146328 
L 43.492023 55.625366 
L 43.665585 46.38183 
L 43.781294 59.144207 
L 43.839148 51.843919 
L 43.897002 55.730404 
L 43.954857 53.839683 
L 44.012711 42.390308 
L 44.070565 48.955313 
L 44.128419 49.638075 
L 44.186274 47.747354 
L 44.244128 51.791397 
L 44.301982 50.005714 
L 44.417691 44.438588 
L 44.591253 64.133619 
L 44.649108 58.093807 
L 44.764816 68.965468 
L 44.880525 58.82909 
L 44.938379 60.667295 
L 44.996233 54.680003 
L 45.054087 59.984533 
L 45.111942 60.352172 
L 45.169796 81.832887 
L 45.22765 74.532594 
L 45.285504 80.887524 
L 45.343359 78.629159 
L 45.401213 77.63128 
L 45.459067 78.208999 
L 45.516921 81.675328 
L 45.574776 80.624923 
L 45.63263 80.414843 
L 45.690484 83.35597 
L 45.806193 78.156482 
L 45.864047 78.26152 
L 45.979755 80.414843 
L 46.095464 74.637636 
L 46.153318 69.280585 
L 46.211172 70.27847 
L 46.442589 79.732081 
L 46.558298 76.003155 
L 46.616152 70.436029 
L 46.73186 80.309805 
L 46.789715 78.944282 
L 46.847569 79.732081 
L 46.905423 76.528358 
L 47.021132 90.761301 
L 47.194694 84.61645 
L 47.252549 85.036611 
L 47.310403 84.301333 
L 47.368257 85.19417 
L 47.483966 82.042967 
L 47.773237 91.916741 
L 47.888945 78.314041 
L 47.9468 79.259404 
L 48.062508 82.358085 
L 48.120362 80.309805 
L 48.178217 80.677444 
L 48.409634 86.402134 
L 48.641051 79.679565 
L 48.698905 82.620687 
L 48.756759 82.253048 
L 48.930322 78.156482 
L 49.04603 82.830767 
L 49.161739 76.370799 
L 49.335302 80.677444 
L 49.508864 75.793075 
L 49.624573 82.778245 
L 49.682427 87.084896 
L 49.740281 85.141653 
L 49.798136 85.824415 
L 49.913844 82.200526 
L 49.971698 84.879052 
L 50.145261 78.629159 
L 50.26097 80.835003 
L 50.376678 90.603739 
L 50.434532 90.13106 
L 50.550241 91.969263 
L 50.723804 88.818058 
L 50.839512 92.809583 
L 50.897366 89.60586 
L 50.955221 89.658379 
L 51.013075 89.92098 
L 51.070929 94.490227 
L 51.128783 92.336904 
L 51.186638 86.454655 
L 51.244492 92.914623 
L 51.3602 82.778245 
L 51.533763 98.481752 
L 51.649472 92.336904 
L 51.707326 75.057797 
L 51.76518 75.267877 
L 51.823034 81.675328 
L 51.880889 77.63128 
L 51.996597 71.591472 
L 52.17016 83.881167 
L 52.285868 64.186136 
L 52.343723 67.547423 
L 52.401577 63.608417 
L 52.459431 73.114554 
L 52.517285 71.749031 
L 52.57514 70.69863 
L 52.690848 75.477957 
L 52.748702 75.005275 
L 52.806557 82.410606 
L 52.864411 73.114554 
L 52.922265 73.692273 
L 52.980119 76.108197 
L 53.153682 64.816381 
L 53.211536 64.868897 
L 53.327245 62.032813 
L 53.385099 62.820617 
L 53.558662 65.709218 
L 53.732225 60.037049 
L 53.847933 65.131499 
L 54.07935 54.049763 
L 54.137204 59.564373 
L 54.195059 54.890083 
L 54.368621 60.667295 
L 54.48433 54.785041 
L 54.542184 59.826969 
L 54.600038 57.516088 
L 54.657893 57.516088 
L 54.715747 57.358529 
L 54.831455 59.196729 
L 54.88931 51.843919 
L 54.947164 57.621125 
L 55.005018 61.192492 
L 55.062872 53.419522 
L 55.120727 54.680003 
L 55.178581 64.3437 
L 55.236435 62.715575 
L 55.409998 54.1548 
L 55.525706 56.938368 
L 55.583561 52.789282 
L 55.699269 61.822733 
L 55.757123 60.404693 
L 55.814978 60.247129 
L 55.872832 62.452973 
L 55.98854 57.253486 
L 56.162103 65.18402 
L 56.219957 56.360644 
L 56.277812 59.984533 
L 56.335666 61.139971 
L 56.39352 53.73464 
L 56.451374 58.881611 
L 56.509229 61.139971 
L 56.624937 52.894319 
L 56.7985 63.345815 
L 56.856354 60.08957 
L 56.914208 52.264079 
L 56.972063 53.051878 
L 57.145625 51.89644 
L 57.319188 43.230628 
L 57.492751 54.312364 
L 57.550605 59.564373 
L 57.724168 36.718129 
L 57.782022 36.718129 
L 57.839876 33.409368 
L 57.89773 43.545746 
L 57.955585 39.606739 
L 58.360564 8.514849 
L 58.476273 16.655458 
L 58.534127 15.710095 
L 58.591981 17.5483 
L 58.823398 34.249688 
L 58.939107 30.678321 
L 58.996961 32.201408 
L 59.11267 36.087893 
L 59.170524 28.735083 
L 59.344087 44.911269 
L 59.401941 44.858748 
L 59.459795 33.777007 
L 59.517649 35.877808 
L 59.575504 37.97862 
L 59.633358 36.665617 
L 59.691212 34.354731 
L 59.806921 44.386066 
L 59.864775 36.665617 
L 59.922629 41.077305 
L 60.154046 54.259843 
L 60.2119 52.159036 
L 60.269755 53.94472 
L 60.327609 52.999362 
L 60.385463 55.205201 
L 60.501172 46.066707 
L 60.559026 55.782925 
L 60.61688 52.001478 
L 60.674734 47.117108 
L 60.790443 58.671531 
L 60.848297 54.312364 
L 60.906151 50.110756 
L 61.079714 62.768096 
L 61.195423 54.942605 
L 61.253277 56.360644 
L 61.42684 66.81214 
L 61.484694 63.555895 
L 61.600402 56.885847 
L 61.658257 59.03917 
L 61.773965 55.677883 
L 61.831819 58.724047 
L 62.005382 70.541066 
L 62.063236 53.839683 
L 62.121091 63.818497 
L 62.178945 64.606301 
L 62.352508 57.621125 
L 62.410362 60.404693 
L 62.468216 57.463566 
L 62.52607 60.824853 
L 62.641779 52.421638 
L 62.699633 53.52456 
L 62.815342 57.148449 
L 62.873196 54.680003 
L 62.93105 55.362765 
L 62.988904 55.572845 
L 63.162467 47.904912 
L 63.220321 47.957434 
L 63.393884 60.719811 
L 63.451738 57.831205 
L 63.509593 59.24925 
L 63.683155 50.478395 
L 63.74101 50.530917 
L 63.798864 52.894319 
L 63.856718 50.530917 
L 63.914572 52.474159 
L 64.088135 50.373358 
L 64.203844 59.984533 
L 64.261698 66.181899 
L 64.319552 52.52668 
L 64.377406 61.192492 
L 64.550969 72.431792 
L 64.724532 80.782487 
L 64.782386 78.839239 
L 64.955949 48.272551 
L 65.013803 49.060356 
L 65.071657 59.196729 
L 65.129512 51.843919 
L 65.187366 53.31448 
L 65.303074 68.807904 
L 65.360929 65.18402 
L 65.418783 52.421638 
L 65.476637 58.82909 
L 65.592346 71.854068 
L 65.6502 70.225948 
L 65.939471 96.696071 
L 65.997325 94.805347 
L 66.170888 78.05144 
L 66.228742 80.782487 
L 66.518014 53.209442 
L 66.575868 54.522444 
L 66.807285 63.135735 
L 66.865139 65.866782 
L 67.038702 76.160719 
L 67.15441 86.087011 
L 67.212265 85.40425 
L 67.270119 82.515649 
L 67.327973 89.185697 
L 67.385827 85.40425 
L 67.443682 61.087455 
L 67.501536 75.635516 
L 67.55939 75.057797 
L 67.675099 87.452535 
L 67.732953 87.084896 
L 67.790807 88.135296 
L 67.848661 86.979856 
L 68.080078 70.330986 
L 68.137933 77.05356 
L 68.195787 76.948518 
L 68.369349 69.805788 
L 68.485058 77.211119 
L 68.774329 51.371237 
L 68.947892 63.871018 
L 69.121455 54.36488 
L 69.179309 56.098043 
L 69.237163 55.100163 
L 69.295017 51.89644 
L 69.352872 57.043406 
L 69.410726 52.10652 
L 69.46858 66.39198 
L 69.526434 61.245014 
L 69.699997 51.89644 
L 69.757851 63.871018 
L 69.815706 61.927775 
L 69.87356 53.839683 
L 69.931414 59.301771 
L 69.989268 56.990885 
L 70.047123 59.196729 
L 70.162831 71.11879 
L 70.336394 63.818497 
L 70.452102 86.664736 
L 70.509957 78.4716 
L 70.741374 72.221712 
L 70.914936 78.419079 
L 70.972791 78.366563 
L 71.088499 83.093368 
L 71.204208 74.532594 
L 71.262062 78.156482 
L 71.319916 78.576643 
L 71.435625 71.013748 
L 71.667042 91.023902 
L 71.78275 77.578758 
L 71.840604 81.307684 
L 72.014167 95.225507 
L 72.129876 98.429233 
L 72.245584 94.227626 
L 72.303438 94.647786 
L 72.361293 94.805347 
L 72.477001 91.128942 
L 72.534855 87.505056 
L 72.59271 88.030256 
L 72.650564 88.765537 
L 72.708418 92.021782 
L 72.766272 91.076421 
L 72.939835 86.822294 
L 72.997689 89.133178 
L 73.055544 95.960788 
L 73.113398 90.551221 
L 73.171252 87.820176 
L 73.344815 97.16875 
L 73.576232 90.498699 
L 73.634086 88.450417 
L 73.865503 93.649906 
L 74.09692 82.883288 
L 74.154774 85.929453 
L 74.328337 92.336904 
L 74.386191 88.187818 
L 74.444046 88.450417 
L 74.5019 88.187818 
L 74.559754 92.021782 
L 74.617608 89.133178 
L 74.675463 86.927334 
L 74.733317 89.553339 
L 74.90688 100.109877 
L 75.080442 93.544866 
L 75.311859 98.691835 
L 75.369714 97.693953 
L 75.485422 91.759183 
L 75.543276 93.702425 
L 75.832548 89.553339 
L 75.890402 93.965027 
L 76.121819 84.353849 
L 76.237527 82.988331 
L 76.295382 84.038731 
L 76.353236 81.045083 
L 76.41109 83.093368 
L 76.468944 81.937925 
L 76.526799 76.685916 
L 76.584653 77.001039 
L 76.700361 81.832887 
L 76.758216 74.427556 
L 76.81607 81.202647 
L 77.278904 57.411045 
L 77.336758 59.45933 
L 77.394612 66.339463 
L 77.452467 63.871018 
L 77.510321 64.921419 
L 77.568175 69.963347 
L 77.626029 68.282706 
L 77.857446 54.574961 
L 77.915301 62.295414 
L 77.973155 57.673646 
L 78.146718 69.175548 
L 78.204572 63.135735 
L 78.32028 76.475836 
L 78.378135 74.690153 
L 78.493843 69.017984 
L 78.551697 71.643988 
L 78.609552 71.013748 
L 78.667406 70.90871 
L 78.72526 71.801552 
L 78.898823 81.360206 
L 79.072386 67.810024 
L 79.188094 63.871018 
L 79.245948 64.97394 
L 79.303803 64.448737 
L 79.419511 68.282706 
L 79.535219 62.610537 
L 79.708782 64.3437 
L 79.824491 56.308123 
L 79.998053 61.507615 
L 80.055908 58.198849 
L 80.22947 67.967583 
L 80.287325 66.917182 
L 80.460887 72.169191 
L 80.750159 53.577081 
L 80.865867 70.015868 
L 81.097284 48.692712 
L 81.212993 54.312364 
L 81.386555 58.776568 
L 81.617972 42.337786 
L 81.675827 43.440703 
L 81.791535 62.347936 
L 81.849389 55.940484 
L 81.907244 41.444944 
L 82.080806 68.177663 
L 82.196515 79.259404 
L 82.312223 76.528358 
L 82.427932 62.873134 
L 82.54364 71.32887 
L 82.659349 48.00995 
L 82.717203 52.841798 
L 82.94862 78.366563 
L 83.006474 84.879052 
L 83.180037 66.024341 
L 83.295746 73.324634 
L 83.411454 71.591472 
L 83.527163 64.291178 
L 83.585017 67.967583 
L 83.642871 64.658817 
L 83.874288 54.680003 
L 84.047851 62.032813 
L 84.105705 60.142092 
L 84.221414 65.919303 
L 84.337122 61.507615 
L 84.452831 51.003598 
L 84.510685 59.196729 
L 84.568539 56.570724 
L 84.626393 57.253486 
L 84.742102 54.890083 
L 84.799956 55.572845 
L 84.85781 51.948956 
L 84.915665 55.152685 
L 84.973519 55.257722 
L 85.089227 60.877375 
L 85.147082 57.831205 
L 85.204936 63.188256 
L 85.26279 58.146328 
L 85.320644 64.55378 
L 85.378499 60.194613 
L 85.436353 62.137856 
L 85.494207 57.411045 
L 85.552061 60.457209 
L 85.66777 65.499138 
L 85.725624 58.25137 
L 85.783478 73.16707 
L 85.841333 63.240778 
L 85.899187 59.511851 
L 86.014895 38.083652 
L 86.07275 46.014186 
L 86.130604 43.230628 
L 86.188458 18.126024 
L 86.246312 30.6258 
L 86.304167 20.909592 
L 86.593438 80.677444 
L 86.767001 51.266195 
L 86.882709 58.934127 
L 86.940563 66.969704 
L 86.998418 57.043406 
L 87.056272 64.081098 
L 87.114126 66.759624 
L 87.287689 27.579635 
L 87.345543 31.886291 
L 87.519106 74.742674 
L 87.634814 70.646109 
L 87.692669 75.162834 
L 87.98194 46.59191 
L 88.097648 64.081098 
L 88.155503 61.245014 
L 88.213357 65.078977 
L 88.271211 78.68168 
L 88.329065 77.998919 
L 88.444774 73.16707 
L 88.502628 74.217476 
L 88.560482 74.007396 
L 88.618337 79.889645 
L 88.791899 56.465687 
L 88.849754 58.619009 
L 88.965462 51.056114 
L 89.139025 61.612653 
L 89.196879 59.406809 
L 89.254733 67.494902 
L 89.312588 65.761739 
L 89.428296 56.728288 
L 89.601859 64.081098 
L 89.659713 46.696948 
L 89.717567 50.110756 
L 89.775422 48.955313 
L 89.833276 55.835446 
L 89.89113 54.995121 
L 89.948984 52.684239 
L 90.006839 54.36488 
L 90.238256 59.66941 
L 90.411818 75.425436 
L 90.585381 62.242893 
L 90.643235 65.919303 
L 90.701089 62.242893 
L 90.874652 75.372914 
L 91.048215 65.341579 
L 91.163923 72.32675 
L 91.221778 67.652465 
L 91.337486 83.35597 
L 91.39534 79.679565 
L 91.568903 71.276349 
L 91.626757 79.364442 
L 91.684612 78.944282 
L 91.80032 75.635516 
L 91.858174 78.996803 
L 91.916029 73.16707 
L 91.973883 76.948518 
L 92.2053 86.664736 
L 92.436717 76.475836 
L 92.494571 77.001039 
L 92.552425 82.673208 
L 92.725988 65.3941 
L 92.783842 66.864661 
L 92.957405 75.005275 
L 93.073114 69.963347 
L 93.246676 59.511851 
L 93.304531 63.188256 
L 93.478093 49.585554 
L 93.651656 54.627482 
L 93.767365 52.211558 
L 93.825219 58.776568 
L 93.883073 50.793518 
L 93.940927 51.371237 
L 93.998782 62.610537 
L 94.056636 43.545746 
L 94.11449 53.051878 
L 94.230199 56.570724 
L 94.288053 51.423758 
L 94.461616 76.213235 
L 94.51947 74.375035 
L 94.577324 72.274229 
L 94.635178 63.503379 
L 94.693033 64.186136 
L 94.750887 79.154362 
L 94.808741 77.263641 
L 94.92445 67.389864 
L 94.982304 68.230185 
L 95.040158 78.26152 
L 95.155867 64.3437 
L 95.329429 75.898117 
L 95.387284 75.582994 
L 95.445138 69.910826 
L 95.734409 90.656261 
L 95.907972 87.610096 
L 95.965826 89.50082 
L 96.139389 84.091248 
L 96.197243 85.509292 
L 96.255097 84.511413 
L 96.42866 80.204762 
L 96.544369 81.360206 
L 96.602223 80.887524 
L 96.83364 82.200526 
L 96.891494 82.305569 
L 97.065057 87.452535 
L 97.122911 86.927334 
L 97.296474 82.148005 
L 97.527891 87.872695 
L 97.585745 86.244575 
L 97.643599 83.98621 
L 97.701454 84.721493 
L 97.817162 82.725729 
L 97.875016 83.408491 
L 97.932871 84.038731 
L 97.990725 86.087011 
L 98.048579 85.141653 
L 98.164288 83.618571 
L 98.222142 84.19629 
L 98.395705 85.614335 
L 98.453559 83.828651 
L 98.511413 84.721493 
L 98.569267 84.826531 
L 98.684976 87.032375 
L 98.858539 83.933689 
L 98.974247 80.729965 
L 99.032101 82.095489 
L 99.205664 76.475836 
L 99.379227 81.937925 
L 99.437081 81.097604 
L 99.55279 72.589351 
L 99.610644 74.112433 
L 99.784207 77.001039 
L 99.957769 72.95699 
L 100.015624 75.215355 
L 100.073478 73.114554 
L 100.247041 78.103961 
L 100.362749 71.11879 
L 100.536312 79.259404 
L 100.594166 75.477957 
L 100.65202 77.001039 
L 100.709875 77.001039 
L 100.767729 73.849832 
L 100.883437 80.572406 
L 100.941292 77.63128 
L 100.999146 80.204762 
L 101.057 83.671087 
L 101.114854 80.414843 
L 101.172709 81.675328 
L 101.288417 89.763419 
L 101.346271 89.185697 
L 101.519834 94.647786 
L 101.577688 93.334784 
L 101.635542 92.441944 
L 101.809105 80.940045 
L 101.924814 88.870577 
L 102.040522 82.568165 
L 102.156231 87.137415 
L 102.271939 76.84348 
L 102.329793 82.778245 
L 102.503356 71.223828 
L 102.676919 63.240778 
L 102.734773 66.339463 
L 102.792627 76.108197 
L 102.850482 73.219592 
L 102.908336 73.744794 
L 103.081899 83.093368 
L 103.139753 79.259404 
L 103.197607 81.360206 
L 103.255461 87.767655 
L 103.313316 86.297092 
L 103.37117 86.507172 
L 103.486878 95.172989 
L 103.544733 94.332666 
L 103.660441 84.931573 
L 103.718295 90.288619 
L 103.77615 86.874816 
L 103.834004 85.561814 
L 103.949712 90.34114 
L 104.238984 81.832887 
L 104.412546 90.393659 
L 104.470401 90.813822 
L 104.528255 90.551221 
L 104.586109 90.708779 
L 104.643963 93.282265 
L 104.701818 92.494463 
L 104.817526 91.233982 
L 104.991089 86.664736 
L 105.106797 76.738438 
L 105.164652 78.786723 
L 105.338214 84.038731 
L 105.396069 83.671087 
L 105.569631 79.049324 
L 105.627486 79.784602 
L 105.68534 79.889645 
L 105.743194 79.784602 
L 105.858903 76.948518 
L 106.206028 88.187818 
L 106.321737 92.546984 
L 106.379591 90.13106 
L 106.437445 89.763419 
L 106.553154 86.087011 
L 106.611008 86.559693 
L 106.726716 85.089132 
L 106.842425 78.314041 
L 106.900279 78.996803 
L 106.958133 77.946402 
L 107.015988 82.883288 
L 107.073842 81.832887 
L 107.247405 72.11667 
L 107.305259 74.795195 
L 107.478822 69.280585 
L 107.536676 70.015868 
L 107.59453 65.078977 
L 107.652384 68.860425 
L 107.941656 59.932012 
L 107.99951 61.402573 
L 108.057364 59.87949 
L 108.115218 60.142092 
L 108.173073 64.711339 
L 108.230927 63.871018 
L 108.288781 62.085334 
L 108.346635 63.083214 
L 108.40449 64.448737 
L 108.578052 71.90659 
L 108.751615 74.007396 
L 108.925178 89.553339 
L 108.983032 87.820176 
L 109.040886 87.767655 
L 109.098741 89.028138 
L 109.272303 95.645668 
L 109.388012 91.916741 
L 109.561575 97.16875 
L 109.850846 79.206883 
L 109.9087 83.35597 
L 109.966554 75.898117 
L 110.024409 80.152241 
L 110.082263 76.42332 
L 110.255826 85.771894 
L 110.31368 83.671087 
L 110.371534 85.666851 
L 110.429388 81.675328 
L 110.487243 84.091248 
L 110.545097 86.612214 
L 110.602951 84.458892 
L 110.71866 79.837124 
L 110.776514 71.223828 
L 110.834368 74.322514 
L 110.892222 71.11879 
L 110.950077 72.064148 
L 111.007931 71.171312 
L 111.181494 79.311921 
L 111.239348 79.364442 
L 111.470765 87.137415 
L 111.586473 85.246691 
L 111.644328 91.023902 
L 111.702182 89.185697 
L 111.81789 96.170871 
L 111.933599 96.06583 
L 112.107162 83.933689 
L 112.165016 87.189936 
L 112.22287 85.719372 
L 112.396433 82.358085 
L 112.454287 84.091248 
L 112.512141 83.828651 
L 112.569995 84.19629 
L 112.743558 78.208999 
L 112.801412 75.582994 
L 112.859267 79.154362 
L 112.917121 77.106077 
L 112.974975 77.001039 
L 113.032829 77.63128 
L 113.495663 98.219153 
L 113.611372 92.389423 
L 113.669226 100.530037 
L 113.72708 99.479634 
L 113.900643 83.145889 
L 113.958497 86.192054 
L 114.016352 83.723609 
L 114.189914 89.448299 
L 114.305623 82.988331 
L 114.363477 90.183579 
L 114.421331 88.345377 
L 114.53704 83.35597 
L 114.652748 87.400016 
L 114.826311 78.366563 
L 114.999874 94.280147 
L 115.115582 92.179343 
L 115.173437 90.393659 
L 115.231291 91.496581 
L 115.289145 95.435588 
L 115.346999 94.962909 
L 115.404854 93.597385 
L 115.462708 97.06371 
L 115.520562 94.017545 
L 115.578416 94.227626 
L 115.636271 89.763419 
L 115.694125 92.179343 
L 115.751979 93.177225 
L 115.809833 87.977735 
L 115.867688 88.292858 
L 116.099105 87.189936 
L 116.156959 95.488109 
L 116.214813 93.334784 
L 116.388376 88.082775 
L 116.561939 75.845596 
L 116.619793 74.795195 
L 116.677647 80.624923 
L 116.735501 80.467364 
L 116.793356 78.786723 
L 116.966918 82.305569 
L 117.082627 79.416963 
L 117.25619 83.77613 
L 117.314044 78.68168 
L 117.429752 95.488109 
L 117.661169 76.370799 
L 117.776878 79.311921 
L 117.892586 76.6334 
L 117.950441 77.106077 
L 118.008295 86.612214 
L 118.066149 83.250927 
L 118.124003 82.358085 
L 118.181858 79.154362 
L 118.239712 82.830767 
L 118.413275 72.064148 
L 118.644692 60.194613 
L 118.7604 67.599944 
L 118.818254 63.608417 
L 119.281088 90.2361 
L 119.396797 88.292858 
L 119.454651 89.343259 
L 119.686068 60.194613 
L 119.743922 67.02222 
L 119.859631 72.74691 
L 119.917485 67.337343 
L 119.975339 73.272113 
L 120.033194 72.799431 
L 120.091048 71.223828 
L 120.148902 73.272113 
L 120.206756 65.289058 
L 120.264611 70.120906 
L 120.322465 67.704982 
L 120.380319 72.484314 
L 120.438173 68.650345 
L 120.496028 65.551659 
L 120.66959 73.954875 
L 120.785299 69.123026 
L 120.843153 72.484314 
L 120.901007 66.181899 
L 120.958862 66.60206 
L 121.016716 72.694394 
L 121.07457 65.551659 
L 121.132424 67.337343 
L 121.190279 69.017984 
L 121.363841 62.663053 
L 121.47955 70.120906 
L 121.595258 66.076862 
L 121.768821 72.11667 
L 121.826675 72.32675 
L 121.88453 70.27847 
L 121.942384 70.751146 
L 122.058092 73.009511 
L 122.115947 76.685916 
L 122.173801 73.534714 
L 122.231655 75.005275 
L 122.289509 74.322514 
L 122.347364 73.797316 
L 122.405218 74.952754 
L 122.463072 74.480072 
L 122.520926 74.847716 
L 122.694489 84.40637 
L 122.810198 77.473721 
L 122.868052 77.316157 
L 123.099469 86.717252 
L 123.157323 82.725729 
L 123.215177 84.143769 
L 123.446594 97.746472 
L 123.620157 85.036611 
L 123.678011 85.771894 
L 123.735865 82.095489 
L 123.909428 94.595267 
L 123.967282 94.805347 
L 124.025137 97.483873 
L 124.082991 96.275911 
L 124.140845 97.588913 
L 124.198699 94.385187 
L 124.256554 95.383069 
L 124.314408 95.698189 
L 124.545825 82.673208 
L 124.603679 85.40425 
L 124.661533 86.244575 
L 124.719388 86.087011 
L 125.008659 72.74691 
L 125.124367 75.372914 
L 125.182222 73.114554 
L 125.29793 82.463128 
L 125.413639 75.688037 
L 125.471493 77.893881 
L 125.529347 75.740558 
L 125.587201 76.265756 
L 125.645056 77.84136 
L 125.818618 70.961226 
L 125.876473 70.751146 
L 126.050035 66.181899 
L 126.10789 68.230185 
L 126.223598 61.139971 
L 126.281452 63.293299 
L 126.455015 56.518203 
L 126.512869 57.831205 
L 126.570724 59.196729 
L 126.859995 43.650788 
L 127.033558 53.682119 
L 127.091412 52.001478 
L 127.20712 45.121349 
L 127.264975 55.730404 
L 127.322829 48.955313 
L 127.380683 47.222151 
L 127.438537 50.320836 
L 127.496392 45.383946 
L 127.554246 47.537273 
L 127.6121 50.110756 
L 127.727809 42.07518 
L 127.843517 55.205201 
L 127.901371 53.629602 
L 128.01708 44.228502 
L 128.074934 50.163278 
L 128.132788 45.331429 
L 128.190643 45.594026 
L 128.306351 53.787161 
L 128.364205 50.688475 
L 128.537768 43.913385 
L 128.827039 56.780805 
L 128.884894 58.198849 
L 128.942748 52.999362 
L 129.000602 55.205201 
L 129.116311 53.209442 
L 129.174165 54.259843 
L 129.232019 54.890083 
L 129.289873 57.306007 
L 129.347728 48.535153 
L 129.405582 51.68636 
L 129.52129 57.516088 
L 129.579145 48.43011 
L 129.636999 53.1044 
L 129.694853 54.36488 
L 129.868416 66.60206 
L 129.92627 61.927775 
L 130.099833 81.727845 
L 130.157687 71.801552 
L 130.215541 75.898117 
L 130.273396 85.771894 
L 130.33125 70.225948 
L 130.389104 73.219592 
L 130.620521 85.246691 
L 130.678375 83.881167 
L 130.851938 92.704543 
L 130.909792 89.81594 
L 130.967647 90.446181 
L 131.025501 91.339022 
L 131.256918 75.793075 
L 131.314772 79.837124 
L 131.372626 79.416963 
L 131.488335 84.353849 
L 131.719752 79.679565 
L 131.83546 86.927334 
L 131.893315 86.034495 
L 132.009023 78.419079 
L 132.066877 81.307684 
L 132.182586 84.61645 
L 132.24044 80.887524 
L 132.298294 82.095489 
L 132.356149 85.40425 
L 132.471857 81.570286 
L 132.587566 88.713018 
L 132.761128 79.942161 
L 132.876837 76.160719 
L 132.992545 80.309805 
L 133.108254 73.16707 
L 133.281817 85.351733 
L 133.397525 78.89176 
L 133.455379 83.56605 
L 133.513234 82.148005 
L 133.686796 75.950638 
L 133.744651 83.98621 
L 133.918213 67.757503 
L 134.033922 69.805788 
L 134.091776 68.492786 
L 134.265339 76.6334 
L 134.381047 70.961226 
L 134.438901 71.959111 
L 134.55461 77.683801 
L 134.612464 73.797316 
L 134.670318 67.704982 
L 134.728173 69.910826 
L 134.786027 72.064148 
L 134.843881 65.026461 
L 134.901735 71.013748 
L 135.075298 81.937925 
L 135.191007 67.232305 
L 135.248861 67.494902 
L 135.306715 65.656702 
L 135.422424 53.997241 
L 135.480278 63.345815 
L 135.538132 53.997241 
L 135.595986 56.885847 
L 135.653841 57.568609 
L 135.769549 65.499138 
L 135.827403 63.030697 
L 135.885258 71.32887 
L 135.943112 64.921419 
L 136.174529 56.780805 
L 136.348092 67.02222 
L 136.405946 64.238657 
L 136.4638 43.230628 
L 136.521654 61.402573 
L 136.579509 62.347936 
L 136.810926 75.582994 
L 136.926634 69.858309 
L 137.042343 64.028577 
L 137.100197 64.081098 
L 137.158051 64.028577 
L 137.215905 63.660938 
L 137.505177 48.22003 
L 137.620885 64.816381 
L 137.678739 63.660938 
L 137.736594 65.026461 
L 137.794448 52.52668 
L 137.852302 62.190377 
L 137.968011 60.877375 
L 138.025865 64.3437 
L 138.083719 60.772332 
L 138.199428 67.127263 
L 138.257282 64.658817 
L 138.37299 57.778689 
L 138.546553 66.076862 
L 138.662262 62.085334 
L 138.77797 22.747787 
L 138.893679 66.234421 
L 138.951533 62.505495 
L 139.067241 66.024341 
L 139.125096 65.18402 
L 139.18295 65.919303 
L 139.240804 68.282706 
L 139.298658 65.919303 
L 139.356513 67.652465 
L 139.414367 71.591472 
L 139.472221 62.400457 
L 139.530075 62.873134 
L 139.645784 76.84348 
L 139.703638 74.164955 
L 139.819347 70.90871 
L 139.877201 73.902353 
L 140.050764 52.736761 
L 140.224326 68.282706 
L 140.455743 57.148449 
L 140.571452 63.450858 
L 140.745015 49.322952 
L 140.802869 49.533032 
L 140.976432 64.658817 
L 141.09214 61.717695 
L 141.149994 57.568609 
L 141.207849 60.194613 
L 141.323557 64.921419 
L 141.439266 59.826969 
L 141.612828 63.871018 
L 141.728537 59.774453 
L 141.9021 68.702866 
L 142.075662 64.133619 
L 142.133517 65.078977 
L 142.191371 73.429672 
L 142.364934 56.885847 
L 142.480642 68.440265 
L 142.538496 61.612653 
L 142.769913 45.856627 
L 142.827768 50.583438 
L 142.885622 42.547861 
L 142.943476 48.797754 
L 143.117039 36.823171 
L 143.174893 36.875693 
L 143.290602 48.272551 
L 143.40631 36.613096 
L 143.464164 37.400895 
L 143.579873 43.230628 
L 143.637727 40.657135 
L 143.695581 43.020543 
L 143.926998 54.522444 
L 143.984853 36.455532 
L 144.042707 44.911269 
L 144.100561 44.386066 
L 144.274124 64.3437 
L 144.563395 46.59191 
L 144.621249 47.537273 
L 144.679104 53.209442 
L 144.910521 35.982851 
L 144.968375 38.031131 
L 145.026229 45.96167 
L 145.084083 40.814699 
L 145.3155 48.22003 
L 145.431209 42.180222 
L 145.489063 31.728727 
L 145.546917 40.86722 
L 145.604771 44.806227 
L 145.662626 44.648663 
L 145.72048 38.031131 
L 145.951897 58.198849 
L 146.009751 45.016307 
L 146.067605 49.217915 
L 146.12546 44.54363 
L 146.241168 60.877375 
L 146.299022 50.268315 
L 146.356877 59.091691 
L 146.414731 52.211558 
L 146.472585 54.207322 
L 146.530439 56.413166 
L 146.646148 46.80199 
L 146.704002 50.163278 
L 146.877565 58.198849 
L 146.993273 55.887963 
L 147.051128 57.726168 
L 147.108982 50.268315 
L 147.22469 69.753267 
L 147.282545 68.492786 
L 147.340399 65.446621 
L 147.398253 66.339463 
L 147.456107 68.125142 
L 147.513962 66.234421 
L 147.571816 72.904474 
L 147.62967 72.799431 
L 147.687524 72.32675 
L 147.745379 72.74691 
L 147.803233 72.904474 
L 147.861087 73.587231 
L 148.03465 80.099725 
L 148.092504 78.156482 
L 148.323921 84.931573 
L 148.728901 75.005275 
L 148.786755 77.473721 
L 148.844609 75.215355 
L 148.960318 68.440265 
L 149.191735 85.246691 
L 149.307443 82.200526 
L 149.481006 87.137415 
L 149.53886 86.664736 
L 149.596715 88.923098 
L 149.654569 88.292858 
L 149.770277 85.40425 
L 149.885986 87.977735 
L 150.001694 97.27379 
L 150.059549 96.64355 
L 150.233111 91.759183 
L 150.406674 81.412727 
L 150.580237 95.855748 
L 150.638091 95.488109 
L 150.7538 99.111995 
L 150.811654 97.798993 
L 150.869508 101.212796 
L 150.985217 96.85363 
L 151.100925 99.689714 
L 151.332342 89.133178 
L 151.390196 89.028138 
L 151.448051 90.34114 
L 151.968739 76.738438 
L 152.026593 83.723609 
L 152.084447 73.744794 
L 152.142302 83.35597 
L 152.200156 80.362326 
L 152.25801 80.467364 
L 152.315864 78.05144 
L 152.489427 83.250927 
L 152.605136 80.414843 
L 152.66299 81.045083 
L 152.720844 78.68168 
L 152.778698 81.307684 
L 152.836553 80.940045 
L 152.894407 80.414843 
L 152.952261 74.217476 
L 153.010115 76.528358 
L 153.06797 76.475836 
L 153.125824 77.526237 
L 153.183678 70.803668 
L 153.241532 75.688037 
L 153.299387 75.267877 
L 153.357241 82.042967 
L 153.415095 80.782487 
L 153.472949 79.574522 
L 153.646512 71.538951 
L 153.935783 75.950638 
L 154.109346 83.040847 
L 154.1672 83.671087 
L 154.225055 81.832887 
L 154.282909 82.463128 
L 154.340763 83.933689 
L 154.514326 79.522001 
L 154.57218 81.675328 
L 154.745743 78.26152 
L 154.97716 83.461007 
L 155.035014 80.099725 
L 155.092868 80.519885 
L 155.150723 81.045083 
L 155.208577 86.087011 
L 155.266431 83.723609 
L 155.38214 84.40637 
L 155.555702 81.202647 
L 155.787119 86.087011 
L 155.844974 82.778245 
L 155.902828 83.145889 
L 155.960682 82.830767 
L 156.134245 77.001039 
L 156.192099 79.679565 
L 156.249953 82.358085 
L 156.307807 80.835003 
L 156.365662 82.515649 
L 156.423516 81.255163 
L 156.48137 80.729965 
L 156.597079 82.148005 
L 156.712787 90.656261 
L 156.770641 82.883288 
L 156.828496 84.40637 
L 156.88635 87.715136 
L 156.944204 87.137415 
L 157.059913 83.828651 
L 157.117767 83.98621 
L 157.175621 85.666851 
L 157.349184 78.4716 
L 157.754164 92.704543 
L 157.812018 89.448299 
L 157.869872 91.339022 
L 157.927726 94.700307 
L 157.985581 84.879052 
L 158.043435 87.137415 
L 158.101289 87.294976 
L 158.159143 87.084896 
L 158.332706 93.282265 
L 158.39056 94.227626 
L 158.448415 93.229744 
L 158.564123 96.74859 
L 158.621977 94.280147 
L 158.679832 95.593149 
L 158.79554 97.588913 
L 158.853394 94.122585 
L 158.911249 101.055238 
L 158.969103 97.798993 
L 159.026957 97.851512 
L 159.142666 91.601621 
L 159.316228 100.424997 
L 159.374083 99.689714 
L 159.431937 102.840921 
L 159.489791 102.57832 
L 159.547645 101.370358 
L 159.6055 102.945961 
L 159.779062 97.431351 
L 159.894771 100.372476 
L 159.952625 99.584674 
L 160.126188 87.505056 
L 160.241896 87.925216 
L 160.357605 90.708779 
L 160.473313 82.200526 
L 160.531168 83.35597 
L 160.70473 97.956552 
L 160.878293 84.721493 
L 160.994002 86.927334 
L 161.051856 85.876931 
L 161.10971 77.683801 
L 161.167564 82.463128 
L 161.225419 87.137415 
L 161.398981 79.889645 
L 161.51469 89.185697 
L 161.688253 85.036611 
L 161.746107 85.141653 
L 161.977524 95.015427 
L 162.035378 91.916741 
L 162.151087 86.087011 
L 162.266795 92.599503 
L 162.324649 90.971381 
L 162.498212 79.101841 
L 162.671775 82.673208 
L 162.787483 84.091248 
L 162.845338 86.244575 
L 162.903192 85.981974 
L 162.961046 85.036611 
L 163.076755 88.502938 
L 163.192463 87.242455 
L 163.366026 97.431351 
L 163.655297 82.515649 
L 163.771006 87.820176 
L 163.82886 87.715136 
L 164.118131 81.517765 
L 164.291694 84.984089 
L 164.349548 101.895558 
L 164.407402 99.952316 
L 164.580965 102.68336 
L 164.638819 102.47328 
L 164.696674 103.156041 
L 164.754528 102.68336 
L 164.812382 102.57832 
L 164.985945 95.120467 
L 165.043799 91.654143 
L 165.101653 93.124704 
L 165.159508 93.439826 
L 165.33307 98.271672 
L 165.390925 97.27379 
L 165.564487 100.845157 
L 165.680196 104.416522 
L 165.853759 97.798993 
L 165.969467 100.740117 
L 166.027321 98.901915 
L 166.14303 101.265318 
L 166.200884 101.055238 
L 166.258738 102.315718 
L 166.316593 99.111995 
L 166.374447 99.899794 
L 166.490155 101.737999 
L 166.54801 100.950197 
L 166.663718 106.517326 
L 166.721572 102.99848 
L 166.779427 105.677006 
L 167.010844 114.657939 
L 167.068698 115.393221 
L 167.126552 115.183141 
L 167.24226 110.929013 
L 167.300115 111.716815 
L 167.473677 115.130621 
L 167.531532 115.498261 
L 167.589386 113.870138 
L 167.64724 107.252607 
L 167.705094 109.826092 
L 167.762949 108.93325 
L 167.994366 115.078101 
L 168.05222 115.393221 
L 168.110074 113.082337 
L 168.167928 118.807026 
L 168.225783 116.653703 
L 168.399345 105.204324 
L 168.4572 108.72317 
L 168.572908 105.099284 
L 168.630762 101.527919 
L 168.688617 102.89344 
L 168.746471 105.677006 
L 168.804325 103.943843 
L 168.862179 102.735881 
L 168.920034 103.366122 
L 169.035742 105.466925 
L 169.093596 109.668531 
L 169.151451 102.840921 
L 169.209305 107.462687 
L 169.325013 104.101402 
L 169.440722 110.718933 
L 169.498576 106.884968 
L 169.672139 103.62872 
L 169.729993 104.048883 
L 169.845702 99.164514 
L 170.019264 109.24837 
L 170.134973 100.162396 
L 170.192827 101.370358 
L 170.250681 104.994244 
L 170.36639 98.954434 
L 170.539953 108.460569 
L 170.597807 108.67065 
L 170.655661 109.458451 
L 170.713515 107.882848 
L 170.829224 111.664295 
L 170.944932 103.62872 
L 171.060641 116.391103 
L 171.118495 114.815499 
L 171.234204 115.288181 
L 171.292058 109.24837 
L 171.349912 116.443623 
L 171.407766 115.235661 
L 171.465621 115.078101 
L 171.639183 96.06583 
L 171.697038 98.324193 
L 171.754892 97.483873 
L 171.812746 99.427115 
L 171.8706 106.359765 
L 171.928455 101.632959 
L 171.986309 102.315718 
L 172.044163 105.939605 
L 172.102017 105.414404 
L 172.217726 102.47328 
L 172.333434 108.51309 
L 172.449143 99.742235 
L 172.506997 100.319957 
L 172.68056 112.767217 
L 172.738414 110.876493 
L 172.796268 100.319957 
L 172.854123 101.737999 
L 172.911977 100.687596 
L 172.969831 101.370358 
L 173.027685 103.3136 
L 173.143394 95.435588 
L 173.259102 108.145448 
L 173.316957 104.206442 
L 173.374811 98.324193 
L 173.490519 105.046763 
L 173.548374 102.525798 
L 173.606228 103.943843 
L 173.664082 104.994244 
L 173.837645 113.870138 
L 173.895499 113.082337 
L 174.069062 106.884968 
L 174.18477 99.322075 
L 174.242625 100.267436 
L 174.358333 102.15816 
L 174.416187 101.790518 
L 174.474042 100.950197 
L 174.58975 96.85363 
L 174.821167 101.107756 
L 174.936876 94.542746 
L 174.99473 95.278029 
L 175.052584 93.912505 
L 175.168293 97.483873 
L 175.226147 97.06371 
L 175.515418 88.030256 
L 175.573272 88.292858 
L 175.631127 89.81594 
L 175.688981 89.395777 
L 175.804689 87.977735 
L 175.862544 92.809583 
L 175.920398 90.02602 
L 175.978252 88.502938 
L 176.036106 89.50082 
L 176.093961 92.284383 
L 176.267523 88.555457 
L 176.325378 89.448299 
L 176.383232 92.967145 
L 176.441086 91.864223 
L 176.556795 87.032375 
L 176.614649 88.713018 
L 176.672503 90.498699 
L 176.730357 89.973499 
L 176.788212 90.078539 
L 176.846066 90.551221 
L 176.90392 92.757065 
L 177.077483 85.824415 
L 177.135337 86.927334 
L 177.251046 84.668972 
L 177.366754 88.135296 
L 177.482463 81.937925 
L 177.656025 91.496581 
L 177.71388 89.92098 
L 177.829588 94.332666 
L 177.887442 92.284383 
L 177.945297 88.292858 
L 178.003151 90.13106 
L 178.176714 98.429233 
L 178.234568 98.954434 
L 178.292422 97.16875 
L 178.350276 100.214917 
L 178.40813 98.271672 
L 178.465985 98.849394 
L 178.523839 100.582556 
L 178.581693 94.385187 
L 178.639547 98.586792 
L 178.697402 97.851512 
L 178.755256 101.685478 
L 178.928819 94.490227 
L 179.044527 92.546984 
L 179.102381 93.544866 
L 179.160236 96.95867 
L 179.21809 93.072185 
L 179.275944 94.122585 
L 179.333798 94.332666 
L 179.449507 96.801111 
L 179.507361 96.591031 
L 179.565215 95.330547 
L 179.680924 99.847275 
L 179.738778 94.700307 
L 179.796632 99.111995 
L 179.854487 96.223389 
L 179.912341 97.851512 
L 180.028049 105.992126 
L 180.085904 105.834564 
L 180.143758 105.519444 
L 180.259466 98.744354 
L 180.375175 106.884968 
L 180.433029 106.044645 
L 180.548738 103.62872 
L 180.606592 103.838801 
L 180.664446 106.832446 
L 180.780155 101.895558 
L 180.838009 103.733761 
L 180.895863 102.735881 
L 180.953717 103.576202 
L 181.242989 114.552899 
L 181.300843 114.605419 
L 181.474406 111.611775 
L 181.53226 113.449977 
L 181.763677 102.36824 
L 181.821531 103.576202 
L 181.93724 109.405931 
L 182.226511 92.809583 
L 182.284365 96.013309 
L 182.457928 102.420758 
L 182.515782 99.899794 
L 182.573636 100.057356 
L 182.747199 104.469044 
L 182.920762 93.597385 
L 182.978616 94.017545 
L 183.03647 88.555457 
L 183.210033 108.51309 
L 183.267887 106.202206 
L 183.325742 105.151803 
L 183.383596 109.09081 
L 183.44145 107.095048 
L 183.499304 103.786282 
L 183.672867 110.298772 
L 183.962138 98.849394 
L 184.077847 90.288619 
L 184.25141 104.994244 
L 184.367118 98.271672 
L 184.424972 98.534273 
L 184.482827 100.424997 
L 184.714244 84.721493 
L 184.772098 90.708779 
L 184.829952 90.656261 
L 185.003515 70.593587 
L 185.119223 65.971819 
L 185.177078 74.112433 
L 185.234932 73.954875 
L 185.292786 74.217476 
L 185.408495 82.568165 
L 185.639912 69.123026 
L 185.697766 70.961226 
L 185.75562 69.017984 
L 185.929183 76.108197 
L 185.987037 69.963347 
L 186.044891 74.480072 
L 186.102746 73.114554 
L 186.1606 76.055676 
L 186.218454 70.856189 
L 186.276308 75.005275 
L 186.449871 79.101841 
L 186.507725 78.89176 
L 186.623434 83.77613 
L 186.681288 76.055676 
L 186.739142 77.316157 
L 186.854851 84.931573 
L 186.912705 82.883288 
L 186.970559 81.937925 
L 187.028414 85.561814 
L 187.086268 85.246691 
L 187.144122 81.675328 
L 187.201976 81.937925 
L 187.317685 86.192054 
L 187.433393 80.887524 
L 187.491248 81.990446 
L 187.606956 79.101841 
L 187.66481 79.627043 
L 187.838373 87.137415 
L 188.011936 80.782487 
L 188.06979 83.35597 
L 188.127644 83.145889 
L 188.243353 81.570286 
L 188.359061 84.774009 
L 188.416916 84.301333 
L 188.47477 84.984089 
L 188.532624 84.563929 
L 188.590478 84.19629 
L 188.821895 77.736322 
L 188.995458 78.26152 
L 189.284729 85.876931 
L 189.342583 85.771894 
L 189.458292 83.250927 
L 189.574 86.927334 
L 189.631855 84.563929 
L 189.747563 85.666851 
L 189.805417 85.299212 
L 189.863272 83.35597 
L 189.97898 89.7109 
L 190.036834 88.555457 
L 190.094689 86.192054 
L 190.152543 90.34114 
L 190.210397 88.135296 
L 190.268251 90.183579 
L 190.326106 89.238218 
L 190.38396 86.822294 
L 190.441814 87.400016 
L 190.557523 89.238218 
L 190.78894 83.093368 
L 190.904648 90.813822 
L 190.962502 101.895558 
L 191.020357 92.914623 
L 191.136065 84.038731 
L 191.193919 84.511413 
L 191.309628 86.664736 
L 191.367482 91.759183 
L 191.541045 86.087011 
L 191.598899 90.078539 
L 191.656753 88.292858 
L 191.714608 86.507172 
L 191.946025 94.857868 
L 192.177442 92.809583 
L 192.235296 92.914623 
L 192.29315 89.973499 
L 192.351004 91.601621 
L 192.408859 92.126824 
L 192.640276 87.610096 
L 192.755984 91.759183 
L 192.987401 82.410606 
L 193.276672 92.126824 
L 193.450235 85.40425 
L 193.508089 89.028138 
L 193.565944 86.612214 
L 193.623798 86.717252 
L 193.681652 88.187818 
L 193.797361 80.729965 
L 193.913069 88.397898 
L 194.028778 78.89176 
L 194.144486 86.139533 
L 194.260195 85.981974 
L 194.318049 84.931573 
L 194.375903 86.822294 
L 194.433757 93.439826 
L 194.491612 89.60586 
L 194.549466 91.128942 
L 194.60732 88.975617 
L 194.665174 93.912505 
L 194.780883 84.40637 
L 194.954446 97.588913 
L 195.0123 94.752828 
L 195.070154 96.74859 
L 195.185863 96.433469 
L 195.243717 100.004837 
L 195.301571 96.906151 
L 195.475134 88.870577 
L 195.706551 92.967145 
L 195.764405 91.233982 
L 195.880114 102.315718 
L 195.937968 113.344937 
L 195.995822 104.416522 
L 196.111531 90.393659 
L 196.169385 91.969263 
L 196.227239 89.185697 
L 196.458656 102.99848 
L 196.574365 95.120467 
L 196.632219 97.798993 
L 196.747927 99.006955 
L 196.863636 95.698189 
L 196.92149 99.952316 
L 196.979344 97.693953 
L 197.037199 97.378833 
L 197.095053 95.593149 
L 197.152907 110.246252 
L 197.210761 102.68336 
L 197.268616 97.116231 
L 197.32647 98.691835 
L 197.442178 96.013309 
L 197.500033 96.696071 
L 197.557887 97.641432 
L 197.615741 100.687596 
L 197.615741 100.687596 
" clip-path="url(#p5f3cd641b9)" style="fill: none; stroke: #e69f00; stroke-width: 1.5; stroke-linecap: square"/>
   </g>
   <g id="patch_3">
    <path d="M 22.72524 124.321635 
L 22.72524 3.00024 
" style="fill: none; stroke: #000000; stroke-width: 0.8; stroke-linejoin: miter; stroke-linecap: square"/>
   </g>
   <g id="patch_4">
    <path d="M 205.94386 124.321635 
L 205.94386 3.00024 
" style="fill: none; stroke: #000000; stroke-width: 0.8; stroke-linejoin: miter; stroke-linecap: square"/>
   </g>
   <g id="patch_5">
    <path d="M 22.72524 124.321635 
L 205.94386 124.321635 
" style="fill: none; stroke: #000000; stroke-width: 0.8; stroke-linejoin: miter; stroke-linecap: square"/>
   </g>
   <g id="patch_6">
    <path d="M 22.72524 3.00024 
L 205.94386 3.00024 
" style="fill: none; stroke: #000000; stroke-width: 0.8; stroke-linejoin: miter; stroke-linecap: square"/>
   </g>
  </g>
  <g id="axes_2">
   <g id="patch_7">
    <path d="M 227.95614 124.321635 
L 411.17476 124.321635 
L 411.17476 3.00024 
L 227.95614 3.00024 
z
" style="fill: #ffffff"/>
   </g>
   <g id="matplotlib.axis_3">
    <g id="xtick_4">
     <g id="line2d_9">
      <g>
       <use xlink:href="#m1b9984096a" x="236.284259" y="124.321635" style="stroke: #000000; stroke-width: 0.8"/>
      </g>
     </g>
     <g id="text_8">
      <!-- Day 1 -->
      <g transform="translate(221.640509 138.920073) scale(0.1 -0.1)">
       <use xlink:href="#DejaVuSans-44"/>
       <use xlink:href="#DejaVuSans-61" x="77.001953"/>
       <use xlink:href="#DejaVuSans-79" x="138.28125"/>
       <use xlink:href="#DejaVuSans-20" x="197.460938"/>
       <use xlink:href="#DejaVuSans-31" x="229.248047"/>
      </g>
     </g>
    </g>
    <g id="xtick_5">
     <g id="line2d_10">
      <g>
       <use xlink:href="#m1b9984096a" x="320.089231" y="124.321635" style="stroke: #000000; stroke-width: 0.8"/>
      </g>
     </g>
     <g id="text_9">
      <!-- Day 10 -->
      <g transform="translate(302.264231 138.920073) scale(0.1 -0.1)">
       <use xlink:href="#DejaVuSans-44"/>
       <use xlink:href="#DejaVuSans-61" x="77.001953"/>
       <use xlink:href="#DejaVuSans-79" x="138.28125"/>
       <use xlink:href="#DejaVuSans-20" x="197.460938"/>
       <use xlink:href="#DejaVuSans-31" x="229.248047"/>
       <use xlink:href="#DejaVuSans-30" x="292.871094"/>
      </g>
     </g>
    </g>
    <g id="xtick_6">
     <g id="line2d_11">
      <g>
       <use xlink:href="#m1b9984096a" x="403.894203" y="124.321635" style="stroke: #000000; stroke-width: 0.8"/>
      </g>
     </g>
     <g id="text_10">
      <!-- Day 20 -->
      <g transform="translate(386.069203 138.920073) scale(0.1 -0.1)">
       <use xlink:href="#DejaVuSans-44"/>
       <use xlink:href="#DejaVuSans-61" x="77.001953"/>
       <use xlink:href="#DejaVuSans-79" x="138.28125"/>
       <use xlink:href="#DejaVuSans-20" x="197.460938"/>
       <use xlink:href="#DejaVuSans-32" x="229.248047"/>
       <use xlink:href="#DejaVuSans-30" x="292.871094"/>
      </g>
     </g>
    </g>
   </g>
   <g id="matplotlib.axis_4">
    <g id="ytick_5">
     <g id="line2d_12">
      <g>
       <use xlink:href="#mf02070465c" x="227.95614" y="102.57832" style="stroke: #000000; stroke-width: 0.8"/>
      </g>
     </g>
    </g>
    <g id="ytick_6">
     <g id="line2d_13">
      <g>
       <use xlink:href="#mf02070465c" x="227.95614" y="76.318277" style="stroke: #000000; stroke-width: 0.8"/>
      </g>
     </g>
    </g>
    <g id="ytick_7">
     <g id="line2d_14">
      <g>
       <use xlink:href="#mf02070465c" x="227.95614" y="50.058235" style="stroke: #000000; stroke-width: 0.8"/>
      </g>
     </g>
    </g>
    <g id="ytick_8">
     <g id="line2d_15">
      <g>
       <use xlink:href="#mf02070465c" x="227.95614" y="23.798193" style="stroke: #000000; stroke-width: 0.8"/>
      </g>
     </g>
    </g>
   </g>
   <g id="line2d_16">
    <path d="M 236.284259 81.202647 
L 237.331821 90.971381 
L 238.379383 92.441944 
L 239.426945 80.835003 
L 240.474508 89.81594 
L 241.52207 90.446181 
L 242.569632 93.754946 
L 244.664756 60.824853 
L 245.712318 49.165393 
L 246.75988 50.005714 
L 247.807443 53.892199 
L 248.855005 49.165393 
L 250.950129 80.414843 
L 251.997691 76.948518 
L 253.045253 90.603739 
L 254.092816 82.253048 
L 255.140378 85.824415 
L 256.18794 92.809583 
L 257.235502 77.63128 
L 258.283064 73.692273 
L 259.330626 63.030697 
L 261.425751 59.45933 
L 262.473313 52.841798 
L 263.520875 33.671964 
L 264.568437 28.735083 
L 265.615999 52.159036 
L 266.663561 56.360644 
L 267.711123 63.083214 
L 268.758686 57.095927 
L 269.806248 61.192492 
L 270.85381 52.421638 
L 271.901372 59.354292 
L 272.948934 75.635516 
L 273.996496 70.961226 
L 275.044059 58.356408 
L 276.091621 76.948518 
L 277.139183 91.023902 
L 278.186745 92.021782 
L 279.234307 92.074303 
L 280.281869 97.904033 
L 281.329431 89.553339 
L 282.376994 77.893881 
L 283.424556 62.295414 
L 284.472118 73.219592 
L 285.51968 61.507615 
L 286.567242 55.730404 
L 287.614804 68.177663 
L 288.662366 66.234421 
L 290.757491 63.188256 
L 291.805053 30.6258 
L 292.852615 27.579635 
L 293.900177 77.998919 
L 294.947739 57.726168 
L 295.995302 75.425436 
L 297.042864 74.690153 
L 298.090426 77.001039 
L 299.137988 51.108636 
L 300.18555 72.274229 
L 301.233112 82.305569 
L 302.280674 81.360206 
L 303.328237 84.721493 
L 304.375799 84.984089 
L 305.423361 77.001039 
L 306.470923 77.893881 
L 307.518485 88.502938 
L 308.566047 73.744794 
L 309.613609 90.34114 
L 310.661172 86.664736 
L 311.708734 85.614335 
L 312.756296 81.832887 
L 313.803858 60.142092 
L 314.85142 92.967145 
L 315.898982 83.933689 
L 316.946545 79.364442 
L 317.994107 84.143769 
L 319.041669 94.280147 
L 320.089231 90.183579 
L 321.136793 93.597385 
L 322.184355 81.465243 
L 323.231917 87.189936 
L 324.27948 67.704982 
L 325.327042 78.786723 
L 326.374604 68.912946 
L 327.422166 71.32887 
L 328.469728 84.40637 
L 329.51729 82.095489 
L 330.564853 83.35597 
L 331.612415 70.961226 
L 332.659977 43.650788 
L 333.707539 53.629602 
L 334.755101 52.999362 
L 335.802663 74.585115 
L 336.850225 91.339022 
L 337.897788 81.307684 
L 338.94535 73.16707 
L 339.992912 75.582994 
L 341.040474 67.232305 
L 342.088036 61.087455 
L 343.135598 61.192492 
L 344.18316 60.404693 
L 345.230723 67.652465 
L 346.278285 59.721931 
L 347.325847 59.826969 
L 348.373409 68.440265 
L 349.420971 42.127701 
L 350.468533 46.59191 
L 351.516096 44.806227 
L 352.563658 46.80199 
L 353.61122 72.32675 
L 354.658782 75.005275 
L 355.706344 85.40425 
L 356.753906 97.798993 
L 357.801468 81.202647 
L 358.849031 80.414843 
L 359.896593 75.950638 
L 360.944155 83.461007 
L 361.991717 81.360206 
L 363.039279 83.828651 
L 364.086841 87.294976 
L 365.134403 91.601621 
L 366.181966 91.969263 
L 367.229528 87.137415 
L 368.27709 92.599503 
L 369.324652 96.74859 
L 370.372214 101.895558 
L 371.419776 97.27379 
L 372.467339 101.002716 
L 373.514901 115.130621 
L 374.562463 107.462687 
L 375.610025 105.466925 
L 376.657587 108.67065 
L 377.705149 96.06583 
L 378.752711 112.767217 
L 379.800274 108.250489 
L 381.895398 87.977735 
L 382.94296 90.551221 
L 383.990522 92.284383 
L 385.038084 94.490227 
L 386.085646 102.57832 
L 387.133209 106.727406 
L 388.180771 102.57832 
L 389.228333 94.962909 
L 390.275895 96.433469 
L 391.323457 74.112433 
L 392.371019 70.856189 
L 393.418582 85.719372 
L 394.466144 83.77613 
L 395.513706 85.771894 
L 396.561268 86.822294 
L 397.60883 86.664736 
L 398.656392 91.076421 
L 399.703954 89.028138 
L 400.751517 91.128942 
L 401.799079 91.233982 
L 402.846641 97.798993 
L 402.846641 97.798993 
" clip-path="url(#p5dcd2f6900)" style="fill: none; stroke: #e69f00; stroke-width: 1.5; stroke-linecap: square"/>
   </g>
   <g id="patch_8">
    <path d="M 227.95614 124.321635 
L 227.95614 3.00024 
" style="fill: none; stroke: #000000; stroke-width: 0.8; stroke-linejoin: miter; stroke-linecap: square"/>
   </g>
   <g id="patch_9">
    <path d="M 411.17476 124.321635 
L 411.17476 3.00024 
" style="fill: none; stroke: #000000; stroke-width: 0.8; stroke-linejoin: miter; stroke-linecap: square"/>
   </g>
   <g id="patch_10">
    <path d="M 227.95614 124.321635 
L 411.17476 124.321635 
" style="fill: none; stroke: #000000; stroke-width: 0.8; stroke-linejoin: miter; stroke-linecap: square"/>
   </g>
   <g id="patch_11">
    <path d="M 227.95614 3.00024 
L 411.17476 3.00024 
" style="fill: none; stroke: #000000; stroke-width: 0.8; stroke-linejoin: miter; stroke-linecap: square"/>
   </g>
  </g>
  <g id="axes_3">
   <g id="patch_12">
    <path d="M 22.72524 268.321635 
L 205.94386 268.321635 
L 205.94386 147.00024 
L 22.72524 147.00024 
z
" style="fill: #ffffff"/>
   </g>
   <g id="matplotlib.axis_5">
    <g id="xtick_7">
     <g id="line2d_17">
      <g>
       <use xlink:href="#m1b9984096a" x="31.053359" y="268.321635" style="stroke: #000000; stroke-width: 0.8"/>
      </g>
     </g>
     <g id="text_11">
      <!-- Day 1 -->
      <g transform="translate(16.409609 282.920073) scale(0.1 -0.1)">
       <use xlink:href="#DejaVuSans-44"/>
       <use xlink:href="#DejaVuSans-61" x="77.001953"/>
       <use xlink:href="#DejaVuSans-79" x="138.28125"/>
       <use xlink:href="#DejaVuSans-20" x="197.460938"/>
       <use xlink:href="#DejaVuSans-31" x="229.248047"/>
      </g>
     </g>
    </g>
    <g id="xtick_8">
     <g id="line2d_18">
      <g>
       <use xlink:href="#m1b9984096a" x="105.912857" y="268.321635" style="stroke: #000000; stroke-width: 0.8"/>
      </g>
     </g>
     <g id="text_12">
      <!-- Day 10 -->
      <g transform="translate(88.087857 282.920073) scale(0.1 -0.1)">
       <use xlink:href="#DejaVuSans-44"/>
       <use xlink:href="#DejaVuSans-61" x="77.001953"/>
       <use xlink:href="#DejaVuSans-79" x="138.28125"/>
       <use xlink:href="#DejaVuSans-20" x="197.460938"/>
       <use xlink:href="#DejaVuSans-31" x="229.248047"/>
       <use xlink:href="#DejaVuSans-30" x="292.871094"/>
      </g>
     </g>
    </g>
    <g id="xtick_9">
     <g id="line2d_19">
      <g>
       <use xlink:href="#m1b9984096a" x="180.772354" y="268.321635" style="stroke: #000000; stroke-width: 0.8"/>
      </g>
     </g>
     <g id="text_13">
      <!-- Day 20 -->
      <g transform="translate(162.947354 282.920073) scale(0.1 -0.1)">
       <use xlink:href="#DejaVuSans-44"/>
       <use xlink:href="#DejaVuSans-61" x="77.001953"/>
       <use xlink:href="#DejaVuSans-79" x="138.28125"/>
       <use xlink:href="#DejaVuSans-20" x="197.460938"/>
       <use xlink:href="#DejaVuSans-32" x="229.248047"/>
       <use xlink:href="#DejaVuSans-30" x="292.871094"/>
      </g>
     </g>
    </g>
   </g>
   <g id="matplotlib.axis_6">
    <g id="ytick_9">
     <g id="line2d_20">
      <g>
       <use xlink:href="#mf02070465c" x="22.72524" y="246.57832" style="stroke: #000000; stroke-width: 0.8"/>
      </g>
     </g>
     <g id="text_14">
      <!-- 5 -->
      <g transform="translate(9.36274 250.377539) scale(0.1 -0.1)">
       <use xlink:href="#DejaVuSans-35"/>
      </g>
     </g>
    </g>
    <g id="ytick_10">
     <g id="line2d_21">
      <g>
       <use xlink:href="#mf02070465c" x="22.72524" y="220.318277" style="stroke: #000000; stroke-width: 0.8"/>
      </g>
     </g>
     <g id="text_15">
      <!-- 10 -->
      <g transform="translate(3.00024 224.117496) scale(0.1 -0.1)">
       <use xlink:href="#DejaVuSans-31"/>
       <use xlink:href="#DejaVuSans-30" x="63.623047"/>
      </g>
     </g>
    </g>
    <g id="ytick_11">
     <g id="line2d_22">
      <g>
       <use xlink:href="#mf02070465c" x="22.72524" y="194.058235" style="stroke: #000000; stroke-width: 0.8"/>
      </g>
     </g>
     <g id="text_16">
      <!-- 15 -->
      <g transform="translate(3.00024 197.857454) scale(0.1 -0.1)">
       <use xlink:href="#DejaVuSans-31"/>
       <use xlink:href="#DejaVuSans-35" x="63.623047"/>
      </g>
     </g>
    </g>
    <g id="ytick_12">
     <g id="line2d_23">
      <g>
       <use xlink:href="#mf02070465c" x="22.72524" y="167.798193" style="stroke: #000000; stroke-width: 0.8"/>
      </g>
     </g>
     <g id="text_17">
      <!-- 20 -->
      <g transform="translate(3.00024 171.597411) scale(0.1 -0.1)">
       <use xlink:href="#DejaVuSans-32"/>
       <use xlink:href="#DejaVuSans-30" x="63.623047"/>
      </g>
     </g>
    </g>
   </g>
   <g id="line2d_24">
    <path d="M 31.053359 225.202647 
L 32.924847 233.290737 
L 34.796334 229.19417 
L 36.667821 233.395777 
L 38.539309 220.42332 
L 40.410796 195.003598 
L 42.282284 192.955313 
L 44.153771 186.390308 
L 46.025259 222.26152 
L 47.896746 234.603739 
L 49.768233 221.736322 
L 51.639721 235.233982 
L 53.511208 207.083214 
L 55.382696 198.680003 
L 57.254183 197.051878 
L 59.125671 178.249688 
L 60.997158 191.117108 
L 62.868646 204.824853 
L 64.740133 205.192492 
L 66.61162 224.782487 
L 68.483108 214.330986 
L 70.354595 203.301771 
L 72.226083 221.578758 
L 74.09757 232.450417 
L 75.969058 235.759183 
L 77.840545 203.45933 
L 79.712032 207.871018 
L 81.58352 199.730404 
L 83.455007 212.912946 
L 85.326495 198.890083 
L 87.197982 224.677444 
L 89.06947 217.16707 
L 90.940957 216.589351 
L 92.812445 227.723609 
L 94.683932 206.610537 
L 96.555419 233.50082 
L 98.426907 228.721493 
L 100.298394 216.589351 
L 102.169882 235.023902 
L 104.041369 231.767655 
L 105.912857 220.738438 
L 107.784344 221.946402 
L 109.655831 223.311921 
L 111.527319 227.198411 
L 113.398806 227.828651 
L 115.270294 234.183579 
L 117.141781 237.334784 
L 119.013269 227.250927 
L 120.884756 211.337343 
L 122.756244 216.11667 
L 124.627731 229.036611 
L 126.499218 221.893881 
L 128.370706 192.955313 
L 130.242193 198.259843 
L 132.113681 235.339022 
L 133.985168 220.160719 
L 135.856656 213.910826 
L 137.728143 206.347936 
L 139.59963 206.978176 
L 141.471118 207.818497 
L 143.342605 209.078977 
L 145.214093 180.455532 
L 147.08558 195.68636 
L 148.957068 216.32675 
L 150.828555 230.664736 
L 152.700043 233.028138 
L 154.57153 219.688037 
L 156.443017 224.519885 
L 158.314505 231.137415 
L 160.185992 241.588913 
L 162.05748 236.284383 
L 163.928967 223.101841 
L 165.800455 245.895558 
L 167.671942 245.055238 
L 169.543429 259.393221 
L 171.414917 247.838801 
L 173.286404 241.483873 
L 175.157892 247.943843 
L 177.029379 233.448299 
L 178.900867 229.981974 
L 180.772354 240.95867 
L 182.643842 250.727406 
L 184.515329 238.385187 
L 186.386816 228.721493 
L 188.258304 225.045083 
L 190.129791 228.301333 
L 192.001279 234.183579 
L 193.872766 236.809583 
L 195.744254 225.780366 
L 197.615741 239.278029 
" clip-path="url(#p2a9fd9f85a)" style="fill: none; stroke: #e69f00; stroke-width: 1.5; stroke-linecap: square"/>
   </g>
   <g id="patch_13">
    <path d="M 22.72524 268.321635 
L 22.72524 147.00024 
" style="fill: none; stroke: #000000; stroke-width: 0.8; stroke-linejoin: miter; stroke-linecap: square"/>
   </g>
   <g id="patch_14">
    <path d="M 205.94386 268.321635 
L 205.94386 147.00024 
" style="fill: none; stroke: #000000; stroke-width: 0.8; stroke-linejoin: miter; stroke-linecap: square"/>
   </g>
   <g id="patch_15">
    <path d="M 22.72524 268.321635 
L 205.94386 268.321635 
" style="fill: none; stroke: #000000; stroke-width: 0.8; stroke-linejoin: miter; stroke-linecap: square"/>
   </g>
   <g id="patch_16">
    <path d="M 22.72524 147.00024 
L 205.94386 147.00024 
" style="fill: none; stroke: #000000; stroke-width: 0.8; stroke-linejoin: miter; stroke-linecap: square"/>
   </g>
  </g>
  <g id="axes_4">
   <g id="patch_17">
    <path d="M 227.95614 268.321635 
L 411.17476 268.321635 
L 411.17476 147.00024 
L 227.95614 147.00024 
z
" style="fill: #ffffff"/>
   </g>
   <g id="matplotlib.axis_7">
    <g id="xtick_10">
     <g id="line2d_25">
      <g>
       <use xlink:href="#m1b9984096a" x="236.264383" y="268.321635" style="stroke: #000000; stroke-width: 0.8"/>
      </g>
     </g>
     <g id="text_18">
      <!-- Day 1 -->
      <g transform="translate(221.620633 282.920073) scale(0.1 -0.1)">
       <use xlink:href="#DejaVuSans-44"/>
       <use xlink:href="#DejaVuSans-61" x="77.001953"/>
       <use xlink:href="#DejaVuSans-79" x="138.28125"/>
       <use xlink:href="#DejaVuSans-20" x="197.460938"/>
       <use xlink:href="#DejaVuSans-31" x="229.248047"/>
      </g>
     </g>
    </g>
    <g id="xtick_11">
     <g id="line2d_26">
      <g>
       <use xlink:href="#m1b9984096a" x="323.719571" y="268.321635" style="stroke: #000000; stroke-width: 0.8"/>
      </g>
     </g>
     <g id="text_19">
      <!-- Day 10 -->
      <g transform="translate(305.894571 282.920073) scale(0.1 -0.1)">
       <use xlink:href="#DejaVuSans-44"/>
       <use xlink:href="#DejaVuSans-61" x="77.001953"/>
       <use xlink:href="#DejaVuSans-79" x="138.28125"/>
       <use xlink:href="#DejaVuSans-20" x="197.460938"/>
       <use xlink:href="#DejaVuSans-31" x="229.248047"/>
       <use xlink:href="#DejaVuSans-30" x="292.871094"/>
      </g>
     </g>
    </g>
    <g id="xtick_12">
     <g id="line2d_27">
      <g>
       <use xlink:href="#m1b9984096a" x="411.17476" y="268.321635" style="stroke: #000000; stroke-width: 0.8"/>
      </g>
     </g>
     <g id="text_20">
      <!-- Day 20 -->
      <g transform="translate(393.34976 282.920073) scale(0.1 -0.1)">
       <use xlink:href="#DejaVuSans-44"/>
       <use xlink:href="#DejaVuSans-61" x="77.001953"/>
       <use xlink:href="#DejaVuSans-79" x="138.28125"/>
       <use xlink:href="#DejaVuSans-20" x="197.460938"/>
       <use xlink:href="#DejaVuSans-32" x="229.248047"/>
       <use xlink:href="#DejaVuSans-30" x="292.871094"/>
      </g>
     </g>
    </g>
   </g>
   <g id="matplotlib.axis_8">
    <g id="ytick_13">
     <g id="line2d_28">
      <g>
       <use xlink:href="#mf02070465c" x="227.95614" y="246.57832" style="stroke: #000000; stroke-width: 0.8"/>
      </g>
     </g>
    </g>
    <g id="ytick_14">
     <g id="line2d_29">
      <g>
       <use xlink:href="#mf02070465c" x="227.95614" y="220.318277" style="stroke: #000000; stroke-width: 0.8"/>
      </g>
     </g>
    </g>
    <g id="ytick_15">
     <g id="line2d_30">
      <g>
       <use xlink:href="#mf02070465c" x="227.95614" y="194.058235" style="stroke: #000000; stroke-width: 0.8"/>
      </g>
     </g>
    </g>
    <g id="ytick_16">
     <g id="line2d_31">
      <g>
       <use xlink:href="#mf02070465c" x="227.95614" y="167.798193" style="stroke: #000000; stroke-width: 0.8"/>
      </g>
     </g>
    </g>
   </g>
   <g id="line2d_32">
    <path d="M 236.264383 225.202647 
L 245.009902 204.824853 
L 253.75542 234.603739 
L 262.500939 203.45933 
L 271.246458 205.192492 
L 279.991977 236.021782 
L 288.737496 199.730404 
L 297.483015 201.726168 
L 306.228534 228.721493 
L 314.974053 229.614335 
L 323.719571 234.183579 
L 332.46509 228.40637 
L 341.210609 235.339022 
L 349.956128 211.652465 
L 358.701647 216.32675 
L 367.447166 225.360206 
L 376.192685 245.895558 
L 384.938203 256.767217 
L 393.683722 250.727406 
L 402.429241 229.771894 
" clip-path="url(#p4718c3c75f)" style="fill: none; stroke: #e69f00; stroke-width: 1.5; stroke-linecap: square"/>
   </g>
   <g id="patch_18">
    <path d="M 227.95614 268.321635 
L 227.95614 147.00024 
" style="fill: none; stroke: #000000; stroke-width: 0.8; stroke-linejoin: miter; stroke-linecap: square"/>
   </g>
   <g id="patch_19">
    <path d="M 411.17476 268.321635 
L 411.17476 147.00024 
" style="fill: none; stroke: #000000; stroke-width: 0.8; stroke-linejoin: miter; stroke-linecap: square"/>
   </g>
   <g id="patch_20">
    <path d="M 227.95614 268.321635 
L 411.17476 268.321635 
" style="fill: none; stroke: #000000; stroke-width: 0.8; stroke-linejoin: miter; stroke-linecap: square"/>
   </g>
   <g id="patch_21">
    <path d="M 227.95614 147.00024 
L 411.17476 147.00024 
" style="fill: none; stroke: #000000; stroke-width: 0.8; stroke-linejoin: miter; stroke-linecap: square"/>
   </g>
  </g>
 </g>
 <defs>
  <clipPath id="p5f3cd641b9">
   <rect x="22.72524" y="3.00024" width="183.21862" height="121.321395"/>
  </clipPath>
  <clipPath id="p5dcd2f6900">
   <rect x="227.95614" y="3.00024" width="183.21862" height="121.321395"/>
  </clipPath>
  <clipPath id="p2a9fd9f85a">
   <rect x="22.72524" y="147.00024" width="183.21862" height="121.321395"/>
  </clipPath>
  <clipPath id="p4718c3c75f">
   <rect x="227.95614" y="147.00024" width="183.21862" height="121.321395"/>
  </clipPath>
 </defs>
</svg>
