<?xml version="1.0" encoding="utf-8" standalone="no"?>
<!DOCTYPE svg PUBLIC "-//W3C//DTD SVG 1.1//EN"
  "http://www.w3.org/Graphics/SVG/1.1/DTD/svg11.dtd">
<svg xmlns:xlink="http://www.w3.org/1999/xlink" width="432pt" height="288pt" viewBox="0 0 432 288" xmlns="http://www.w3.org/2000/svg" version="1.1">
 <metadata>
  <rdf:RDF xmlns:dc="http://purl.org/dc/elements/1.1/" xmlns:cc="http://creativecommons.org/ns#" xmlns:rdf="http://www.w3.org/1999/02/22-rdf-syntax-ns#">
   <cc:Work>
    <dc:type rdf:resource="http://purl.org/dc/dcmitype/StillImage"/>
    <dc:date>2023-07-20T11:03:53.575304</dc:date>
    <dc:format>image/svg+xml</dc:format>
    <dc:creator>
     <cc:Agent>
      <dc:title>Matplotlib v3.7.1, https://matplotlib.org/</dc:title>
     </cc:Agent>
    </dc:creator>
   </cc:Work>
  </rdf:RDF>
 </metadata>
 <defs>
  <style type="text/css">*{stroke-linejoin: round; stroke-linecap: butt}</style>
 </defs>
 <g id="figure_1">
  <g id="patch_1">
   <path d="M 0 288 
L 432 288 
L 432 0 
L 0 0 
z
" style="fill: #ffffff"/>
  </g>
  <g id="axes_1">
   <g id="patch_2">
    <path d="M 42.04572 124.321635 
L 215.167048 124.321635 
L 215.167048 3.00024 
L 42.04572 3.00024 
z
" style="fill: #ffffff"/>
   </g>
   <g id="matplotlib.axis_1">
    <g id="xtick_1">
     <g id="line2d_1">
      <defs>
       <path id="m49e7af0efd" d="M 0 0 
L 0 3.5 
" style="stroke: #000000; stroke-width: 0.8"/>
      </defs>
      <g>
       <use xlink:href="#m49e7af0efd" x="49.914871" y="124.321635" style="stroke: #000000; stroke-width: 0.8"/>
      </g>
     </g>
     <g id="text_1">
      <!-- Day 1 -->
      <g transform="translate(35.271121 138.920073) scale(0.1 -0.1)">
       <defs>
        <path id="DejaVuSans-44" d="M 1259 4147 
L 1259 519 
L 2022 519 
Q 2988 519 3436 956 
Q 3884 1394 3884 2338 
Q 3884 3275 3436 3711 
Q 2988 4147 2022 4147 
L 1259 4147 
z
M 628 4666 
L 1925 4666 
Q 3281 4666 3915 4102 
Q 4550 3538 4550 2338 
Q 4550 1131 3912 565 
Q 3275 0 1925 0 
L 628 0 
L 628 4666 
z
" transform="scale(0.015625)"/>
        <path id="DejaVuSans-61" d="M 2194 1759 
Q 1497 1759 1228 1600 
Q 959 1441 959 1056 
Q 959 750 1161 570 
Q 1363 391 1709 391 
Q 2188 391 2477 730 
Q 2766 1069 2766 1631 
L 2766 1759 
L 2194 1759 
z
M 3341 1997 
L 3341 0 
L 2766 0 
L 2766 531 
Q 2569 213 2275 61 
Q 1981 -91 1556 -91 
Q 1019 -91 701 211 
Q 384 513 384 1019 
Q 384 1609 779 1909 
Q 1175 2209 1959 2209 
L 2766 2209 
L 2766 2266 
Q 2766 2663 2505 2880 
Q 2244 3097 1772 3097 
Q 1472 3097 1187 3025 
Q 903 2953 641 2809 
L 641 3341 
Q 956 3463 1253 3523 
Q 1550 3584 1831 3584 
Q 2591 3584 2966 3190 
Q 3341 2797 3341 1997 
z
" transform="scale(0.015625)"/>
        <path id="DejaVuSans-79" d="M 2059 -325 
Q 1816 -950 1584 -1140 
Q 1353 -1331 966 -1331 
L 506 -1331 
L 506 -850 
L 844 -850 
Q 1081 -850 1212 -737 
Q 1344 -625 1503 -206 
L 1606 56 
L 191 3500 
L 800 3500 
L 1894 763 
L 2988 3500 
L 3597 3500 
L 2059 -325 
z
" transform="scale(0.015625)"/>
        <path id="DejaVuSans-20" transform="scale(0.015625)"/>
        <path id="DejaVuSans-31" d="M 794 531 
L 1825 531 
L 1825 4091 
L 703 3866 
L 703 4441 
L 1819 4666 
L 2450 4666 
L 2450 531 
L 3481 531 
L 3481 0 
L 794 0 
L 794 531 
z
" transform="scale(0.015625)"/>
       </defs>
       <use xlink:href="#DejaVuSans-44"/>
       <use xlink:href="#DejaVuSans-61" x="77.001953"/>
       <use xlink:href="#DejaVuSans-79" x="138.28125"/>
       <use xlink:href="#DejaVuSans-20" x="197.460938"/>
       <use xlink:href="#DejaVuSans-31" x="229.248047"/>
      </g>
     </g>
    </g>
    <g id="xtick_2">
     <g id="line2d_2">
      <g>
       <use xlink:href="#m49e7af0efd" x="128.633717" y="124.321635" style="stroke: #000000; stroke-width: 0.8"/>
      </g>
     </g>
     <g id="text_2">
      <!-- Day 10 -->
      <g transform="translate(110.808717 138.920073) scale(0.1 -0.1)">
       <defs>
        <path id="DejaVuSans-30" d="M 2034 4250 
Q 1547 4250 1301 3770 
Q 1056 3291 1056 2328 
Q 1056 1369 1301 889 
Q 1547 409 2034 409 
Q 2525 409 2770 889 
Q 3016 1369 3016 2328 
Q 3016 3291 2770 3770 
Q 2525 4250 2034 4250 
z
M 2034 4750 
Q 2819 4750 3233 4129 
Q 3647 3509 3647 2328 
Q 3647 1150 3233 529 
Q 2819 -91 2034 -91 
Q 1250 -91 836 529 
Q 422 1150 422 2328 
Q 422 3509 836 4129 
Q 1250 4750 2034 4750 
z
" transform="scale(0.015625)"/>
       </defs>
       <use xlink:href="#DejaVuSans-44"/>
       <use xlink:href="#DejaVuSans-61" x="77.001953"/>
       <use xlink:href="#DejaVuSans-79" x="138.28125"/>
       <use xlink:href="#DejaVuSans-20" x="197.460938"/>
       <use xlink:href="#DejaVuSans-31" x="229.248047"/>
       <use xlink:href="#DejaVuSans-30" x="292.871094"/>
      </g>
     </g>
    </g>
    <g id="xtick_3">
     <g id="line2d_3">
      <g>
       <use xlink:href="#m49e7af0efd" x="207.352562" y="124.321635" style="stroke: #000000; stroke-width: 0.8"/>
      </g>
     </g>
     <g id="text_3">
      <!-- Day 20 -->
      <g transform="translate(189.527562 138.920073) scale(0.1 -0.1)">
       <defs>
        <path id="DejaVuSans-32" d="M 1228 531 
L 3431 531 
L 3431 0 
L 469 0 
L 469 531 
Q 828 903 1448 1529 
Q 2069 2156 2228 2338 
Q 2531 2678 2651 2914 
Q 2772 3150 2772 3378 
Q 2772 3750 2511 3984 
Q 2250 4219 1831 4219 
Q 1534 4219 1204 4116 
Q 875 4013 500 3803 
L 500 4441 
Q 881 4594 1212 4672 
Q 1544 4750 1819 4750 
Q 2544 4750 2975 4387 
Q 3406 4025 3406 3419 
Q 3406 3131 3298 2873 
Q 3191 2616 2906 2266 
Q 2828 2175 2409 1742 
Q 1991 1309 1228 531 
z
" transform="scale(0.015625)"/>
       </defs>
       <use xlink:href="#DejaVuSans-44"/>
       <use xlink:href="#DejaVuSans-61" x="77.001953"/>
       <use xlink:href="#DejaVuSans-79" x="138.28125"/>
       <use xlink:href="#DejaVuSans-20" x="197.460938"/>
       <use xlink:href="#DejaVuSans-32" x="229.248047"/>
       <use xlink:href="#DejaVuSans-30" x="292.871094"/>
      </g>
     </g>
    </g>
   </g>
   <g id="matplotlib.axis_2">
    <g id="ytick_1">
     <g id="line2d_4">
      <defs>
       <path id="m590f6bcb4c" d="M 0 0 
L -3.5 0 
" style="stroke: #000000; stroke-width: 0.8"/>
      </defs>
      <g>
       <use xlink:href="#m590f6bcb4c" x="42.04572" y="102.57832" style="stroke: #000000; stroke-width: 0.8"/>
      </g>
     </g>
     <g id="text_4">
      <!-- 5 -->
      <g transform="translate(28.68322 106.377539) scale(0.1 -0.1)">
       <defs>
        <path id="DejaVuSans-35" d="M 691 4666 
L 3169 4666 
L 3169 4134 
L 1269 4134 
L 1269 2991 
Q 1406 3038 1543 3061 
Q 1681 3084 1819 3084 
Q 2600 3084 3056 2656 
Q 3513 2228 3513 1497 
Q 3513 744 3044 326 
Q 2575 -91 1722 -91 
Q 1428 -91 1123 -41 
Q 819 9 494 109 
L 494 744 
Q 775 591 1075 516 
Q 1375 441 1709 441 
Q 2250 441 2565 725 
Q 2881 1009 2881 1497 
Q 2881 1984 2565 2268 
Q 2250 2553 1709 2553 
Q 1456 2553 1204 2497 
Q 953 2441 691 2322 
L 691 4666 
z
" transform="scale(0.015625)"/>
       </defs>
       <use xlink:href="#DejaVuSans-35"/>
      </g>
     </g>
    </g>
    <g id="ytick_2">
     <g id="line2d_5">
      <g>
       <use xlink:href="#m590f6bcb4c" x="42.04572" y="76.318277" style="stroke: #000000; stroke-width: 0.8"/>
      </g>
     </g>
     <g id="text_5">
      <!-- 10 -->
      <g transform="translate(22.32072 80.117496) scale(0.1 -0.1)">
       <use xlink:href="#DejaVuSans-31"/>
       <use xlink:href="#DejaVuSans-30" x="63.623047"/>
      </g>
     </g>
    </g>
    <g id="ytick_3">
     <g id="line2d_6">
      <g>
       <use xlink:href="#m590f6bcb4c" x="42.04572" y="50.058235" style="stroke: #000000; stroke-width: 0.8"/>
      </g>
     </g>
     <g id="text_6">
      <!-- 15 -->
      <g transform="translate(22.32072 53.857454) scale(0.1 -0.1)">
       <use xlink:href="#DejaVuSans-31"/>
       <use xlink:href="#DejaVuSans-35" x="63.623047"/>
      </g>
     </g>
    </g>
    <g id="ytick_4">
     <g id="line2d_7">
      <g>
       <use xlink:href="#m590f6bcb4c" x="42.04572" y="23.798193" style="stroke: #000000; stroke-width: 0.8"/>
      </g>
     </g>
     <g id="text_7">
      <!-- 20 -->
      <g transform="translate(22.32072 27.597411) scale(0.1 -0.1)">
       <use xlink:href="#DejaVuSans-32"/>
       <use xlink:href="#DejaVuSans-30" x="63.623047"/>
      </g>
     </g>
    </g>
   </g>
   <g id="line2d_8">
    <path d="M 49.914871 81.202647 
L 49.969537 78.524121 
L 50.024203 79.154362 
L 50.078869 78.996803 
L 50.188201 80.835003 
L 50.242866 74.847716 
L 50.297532 77.683801 
L 50.352198 81.150126 
L 50.406864 74.007396 
L 50.46153 74.742674 
L 50.570862 80.519885 
L 50.789525 86.822294 
L 51.008189 94.700307 
L 51.11752 93.544866 
L 51.172186 91.969263 
L 51.226852 95.015427 
L 51.281518 94.962909 
L 51.445515 90.288619 
L 51.500181 84.774009 
L 51.554847 86.979856 
L 51.609513 85.929453 
L 51.718845 89.92098 
L 51.773511 88.345377 
L 51.828177 89.50082 
L 51.992174 95.593149 
L 52.04684 93.124704 
L 52.101506 93.229744 
L 52.156172 94.122585 
L 52.210838 93.754946 
L 52.265503 93.754946 
L 52.320169 94.175107 
L 52.374835 93.649906 
L 52.648164 82.778245 
L 52.70283 84.879052 
L 52.757496 84.19629 
L 52.812162 84.826531 
L 52.866828 80.835003 
L 52.921494 84.19629 
L 53.140157 93.124704 
L 53.194823 90.866341 
L 53.358821 85.036611 
L 53.413487 85.19417 
L 53.522818 83.040847 
L 53.577484 84.40637 
L 53.741482 92.599503 
L 53.796148 87.557575 
L 53.850814 89.81594 
L 53.905479 89.92098 
L 54.014811 91.023902 
L 54.178809 88.135296 
L 54.233475 87.032375 
L 54.28814 87.294976 
L 54.506804 90.02602 
L 54.56147 85.876931 
L 54.616136 87.820176 
L 54.780133 92.914623 
L 54.944131 90.393659 
L 54.998797 89.763419 
L 55.053463 90.813822 
L 55.108128 90.656261 
L 55.21746 88.345377 
L 55.272126 89.448299 
L 55.381458 84.984089 
L 55.436124 86.979856 
L 55.490789 87.662615 
L 55.654787 98.744354 
L 55.764119 96.85363 
L 55.928116 93.597385 
L 56.14678 82.148005 
L 56.310777 83.828651 
L 56.420109 85.246691 
L 56.584107 81.570286 
L 56.693438 73.902353 
L 56.748104 80.047204 
L 56.80277 77.158598 
L 56.857436 75.530478 
L 56.912102 76.42332 
L 57.021434 66.076862 
L 57.240097 77.84136 
L 57.294763 76.318277 
L 57.349429 79.627043 
L 57.404095 76.790959 
L 57.458761 75.110318 
L 57.73209 90.078539 
L 57.896088 52.211558 
L 58.005419 49.795634 
L 58.169417 55.730404 
L 58.333414 53.419522 
L 58.38808 53.209442 
L 58.442746 59.301771 
L 58.606744 47.117108 
L 58.66141 51.003598 
L 58.716075 48.22003 
L 58.770741 49.165393 
L 58.825407 48.22003 
L 58.880073 54.049763 
L 58.934739 49.480516 
L 59.153402 58.724047 
L 59.208068 55.782925 
L 59.3174 59.984533 
L 59.372066 59.616889 
L 59.536063 49.165393 
L 59.590729 50.530917 
L 59.645395 53.94472 
L 59.864059 39.029015 
L 59.918725 39.711782 
L 59.97339 35.720254 
L 60.028056 47.58979 
L 60.082722 43.913385 
L 60.137388 45.594026 
L 60.192054 52.421638 
L 60.24672 47.957434 
L 60.301386 47.169629 
L 60.356051 52.421638 
L 60.410717 48.955313 
L 60.465383 47.012071 
L 60.684047 59.144207 
L 60.848044 51.371237 
L 61.012042 47.852391 
L 61.121374 47.904912 
L 61.285371 50.320836 
L 61.340037 54.102284 
L 61.394703 39.921857 
L 61.449369 53.73464 
L 61.5587 51.161157 
L 61.613366 58.146328 
L 61.668032 55.625366 
L 61.83203 46.38183 
L 61.941362 59.144207 
L 61.996027 51.843919 
L 62.050693 55.730404 
L 62.105359 53.839683 
L 62.160025 42.390308 
L 62.214691 48.955313 
L 62.269357 49.638075 
L 62.324023 47.747354 
L 62.378688 51.791397 
L 62.433354 50.005714 
L 62.542686 44.438588 
L 62.706684 64.133619 
L 62.761349 58.093807 
L 62.870681 68.965468 
L 62.980013 58.82909 
L 63.034679 60.667295 
L 63.089345 54.680003 
L 63.144011 59.984533 
L 63.198676 60.352172 
L 63.253342 81.832887 
L 63.308008 74.532594 
L 63.362674 80.887524 
L 63.41734 78.629159 
L 63.472006 77.63128 
L 63.526672 78.208999 
L 63.581337 81.675328 
L 63.636003 80.624923 
L 63.690669 80.414843 
L 63.745335 83.35597 
L 63.800001 80.572406 
L 63.854667 78.156482 
L 63.909333 78.26152 
L 64.018664 80.414843 
L 64.127996 74.637636 
L 64.182662 69.280585 
L 64.237328 70.27847 
L 64.455991 79.732081 
L 64.565323 76.003155 
L 64.619989 70.436029 
L 64.729321 80.309805 
L 64.783987 78.944282 
L 64.838652 79.732081 
L 64.893318 76.528358 
L 65.00265 90.761301 
L 65.166648 84.61645 
L 65.221313 85.036611 
L 65.275979 84.301333 
L 65.330645 85.19417 
L 65.439977 82.042967 
L 65.713306 91.916741 
L 65.822638 78.314041 
L 65.877304 79.259404 
L 65.986636 82.358085 
L 66.041301 80.309805 
L 66.095967 80.677444 
L 66.314631 86.402134 
L 66.533294 79.679565 
L 66.58796 82.620687 
L 66.642626 82.253048 
L 66.806624 78.156482 
L 66.915955 82.830767 
L 67.025287 76.370799 
L 67.189285 80.677444 
L 67.353282 75.793075 
L 67.462614 82.778245 
L 67.51728 87.084896 
L 67.571946 85.141653 
L 67.626611 85.824415 
L 67.735943 82.200526 
L 67.790609 84.879052 
L 67.954607 78.629159 
L 68.063938 80.835003 
L 68.282602 91.023902 
L 68.337268 91.969263 
L 68.501265 88.818058 
L 68.610597 92.809583 
L 68.665263 89.60586 
L 68.719929 89.658379 
L 68.774595 89.92098 
L 68.829261 94.490227 
L 68.883926 92.336904 
L 68.938592 86.454655 
L 68.993258 92.914623 
L 69.047924 86.507172 
L 69.10259 82.778245 
L 69.266587 98.481752 
L 69.375919 92.336904 
L 69.430585 75.057797 
L 69.485251 75.267877 
L 69.539917 81.675328 
L 69.594583 77.63128 
L 69.703914 71.591472 
L 69.867912 83.881167 
L 69.977244 64.186136 
L 70.03191 67.547423 
L 70.086575 63.608417 
L 70.141241 73.114554 
L 70.195907 71.749031 
L 70.250573 70.69863 
L 70.359905 75.477957 
L 70.414571 75.005275 
L 70.469236 82.410606 
L 70.523902 73.114554 
L 70.578568 73.692273 
L 70.633234 76.108197 
L 70.797232 64.816381 
L 70.851898 64.868897 
L 70.961229 62.032813 
L 71.015895 62.820617 
L 71.179893 65.709218 
L 71.34389 60.037049 
L 71.453222 65.131499 
L 71.671885 54.049763 
L 71.726551 59.564373 
L 71.781217 54.890083 
L 71.945215 60.667295 
L 72.054547 54.785041 
L 72.109212 59.826969 
L 72.163878 57.516088 
L 72.218544 57.516088 
L 72.27321 57.358529 
L 72.382542 59.196729 
L 72.437208 51.843919 
L 72.491873 57.621125 
L 72.546539 61.192492 
L 72.601205 53.419522 
L 72.655871 54.680003 
L 72.710537 64.3437 
L 72.765203 62.715575 
L 72.9292 54.1548 
L 73.038532 56.938368 
L 73.093198 52.789282 
L 73.20253 61.822733 
L 73.257196 60.404693 
L 73.311861 60.247129 
L 73.366527 62.452973 
L 73.475859 57.253486 
L 73.639857 65.18402 
L 73.694522 56.360644 
L 73.749188 59.984533 
L 73.803854 61.139971 
L 73.85852 53.73464 
L 73.913186 58.881611 
L 73.967852 61.139971 
L 74.077184 52.894319 
L 74.241181 63.345815 
L 74.295847 60.08957 
L 74.350513 52.264079 
L 74.405179 53.051878 
L 74.569176 51.89644 
L 74.733174 43.230628 
L 74.951837 59.564373 
L 75.115835 36.718129 
L 75.170501 36.718129 
L 75.225167 33.409368 
L 75.279833 43.545746 
L 75.334498 39.606739 
L 75.717159 8.514849 
L 75.826491 16.655458 
L 75.881157 15.710095 
L 75.935823 17.5483 
L 76.154486 34.249688 
L 76.263818 30.678321 
L 76.318484 32.201408 
L 76.427816 36.087893 
L 76.482482 28.735083 
L 76.646479 44.911269 
L 76.701145 44.858748 
L 76.755811 33.777007 
L 76.810477 35.877808 
L 76.865143 37.97862 
L 76.919809 36.665617 
L 76.974474 34.354731 
L 77.083806 44.386066 
L 77.138472 36.665617 
L 77.193138 41.077305 
L 77.411801 54.259843 
L 77.466467 52.159036 
L 77.521133 53.94472 
L 77.575799 52.999362 
L 77.630465 55.205201 
L 77.739796 46.066707 
L 77.794462 55.782925 
L 77.849128 52.001478 
L 77.903794 47.117108 
L 78.013126 58.671531 
L 78.067792 54.312364 
L 78.122458 50.110756 
L 78.286455 62.768096 
L 78.395787 54.942605 
L 78.450453 56.360644 
L 78.61445 66.81214 
L 78.669116 63.555895 
L 78.778448 56.885847 
L 78.833114 59.03917 
L 78.942446 55.677883 
L 78.997111 58.724047 
L 79.161109 70.541066 
L 79.215775 53.839683 
L 79.270441 63.818497 
L 79.325107 64.606301 
L 79.489104 57.621125 
L 79.54377 60.404693 
L 79.598436 57.463566 
L 79.653102 60.824853 
L 79.762433 52.421638 
L 79.817099 53.52456 
L 79.926431 57.148449 
L 79.981097 54.680003 
L 80.035763 55.362765 
L 80.090429 55.572845 
L 80.254426 47.904912 
L 80.309092 47.957434 
L 80.47309 60.719811 
L 80.527756 57.831205 
L 80.582421 59.24925 
L 80.746419 50.478395 
L 80.801085 50.530917 
L 80.855751 52.894319 
L 80.910417 50.530917 
L 80.965083 52.474159 
L 81.019748 51.161157 
L 81.074414 51.738876 
L 81.12908 50.373358 
L 81.238412 59.984533 
L 81.293078 66.181899 
L 81.347744 52.52668 
L 81.402409 61.192492 
L 81.621073 76.370799 
L 81.675739 77.368678 
L 81.730405 80.782487 
L 81.78507 78.839239 
L 81.949068 48.272551 
L 82.003734 49.060356 
L 82.0584 59.196729 
L 82.113066 51.843919 
L 82.167732 53.31448 
L 82.277063 68.807904 
L 82.331729 65.18402 
L 82.386395 52.421638 
L 82.441061 58.82909 
L 82.550393 71.854068 
L 82.605058 70.225948 
L 82.878388 96.696071 
L 82.933054 94.805347 
L 83.097051 78.05144 
L 83.151717 80.782487 
L 83.425046 53.209442 
L 83.534378 58.408929 
L 83.698376 63.135735 
L 83.753042 65.866782 
L 83.917039 76.160719 
L 84.026371 86.087011 
L 84.081037 85.40425 
L 84.135703 82.515649 
L 84.190369 89.185697 
L 84.245034 85.40425 
L 84.2997 61.087455 
L 84.354366 75.635516 
L 84.409032 75.057797 
L 84.518364 87.452535 
L 84.57303 87.084896 
L 84.627695 88.135296 
L 84.737027 83.56605 
L 84.901025 70.330986 
L 84.955691 77.05356 
L 85.010357 76.948518 
L 85.174354 69.805788 
L 85.283686 77.211119 
L 85.557015 51.371237 
L 85.721013 63.871018 
L 85.88501 54.36488 
L 85.939676 56.098043 
L 85.994342 55.100163 
L 86.049008 51.89644 
L 86.213006 66.39198 
L 86.431669 51.89644 
L 86.486335 63.871018 
L 86.541001 61.927775 
L 86.595667 53.839683 
L 86.650332 59.301771 
L 86.704998 56.990885 
L 86.759664 59.196729 
L 86.868996 71.11879 
L 87.032994 63.818497 
L 87.142325 86.664736 
L 87.196991 78.4716 
L 87.415655 72.221712 
L 87.579652 78.419079 
L 87.634318 78.366563 
L 87.74365 83.093368 
L 87.852981 74.532594 
L 87.907647 78.156482 
L 87.962313 78.576643 
L 88.071645 71.013748 
L 88.290308 91.023902 
L 88.39964 77.578758 
L 88.454306 81.307684 
L 88.618304 95.225507 
L 88.727635 98.429233 
L 88.836967 94.227626 
L 88.891633 94.647786 
L 88.946299 94.805347 
L 89.055631 91.128942 
L 89.110296 87.505056 
L 89.164962 88.030256 
L 89.219628 88.765537 
L 89.274294 92.021782 
L 89.32896 91.076421 
L 89.492957 86.822294 
L 89.602289 95.960788 
L 89.656955 90.551221 
L 89.711621 87.820176 
L 89.875618 97.16875 
L 90.094282 90.498699 
L 90.148948 88.450417 
L 90.203614 90.498699 
L 90.367611 93.649906 
L 90.586275 82.883288 
L 90.640941 85.929453 
L 90.804938 92.336904 
L 90.968936 88.187818 
L 91.023602 92.021782 
L 91.078268 89.133178 
L 91.132933 86.927334 
L 91.187599 89.553339 
L 91.351597 100.109877 
L 91.515594 93.544866 
L 91.734258 98.691835 
L 91.788924 97.693953 
L 91.898255 91.759183 
L 91.952921 93.702425 
L 92.226251 89.553339 
L 92.280917 93.965027 
L 92.335582 89.50082 
L 92.718243 81.045083 
L 92.772909 83.093368 
L 92.827575 81.937925 
L 92.882241 76.685916 
L 92.936907 77.001039 
L 93.046239 81.832887 
L 93.100905 74.427556 
L 93.15557 81.202647 
L 93.592897 57.411045 
L 93.647563 59.45933 
L 93.702229 66.339463 
L 93.756895 63.871018 
L 93.811561 64.921419 
L 93.866227 69.963347 
L 93.920892 68.282706 
L 94.139556 54.574961 
L 94.194222 62.295414 
L 94.303554 62.190377 
L 94.358219 63.135735 
L 94.576883 76.475836 
L 94.74088 69.017984 
L 94.850212 71.013748 
L 94.904878 70.90871 
L 94.959544 71.801552 
L 95.123542 81.360206 
L 95.287539 67.810024 
L 95.396871 63.871018 
L 95.451537 64.97394 
L 95.506203 64.448737 
L 95.615534 68.282706 
L 95.724866 62.610537 
L 95.888864 64.3437 
L 95.998195 56.308123 
L 96.162193 61.507615 
L 96.216859 58.198849 
L 96.380856 67.967583 
L 96.435522 66.917182 
L 96.59952 72.169191 
L 96.872849 53.577081 
L 96.982181 70.015868 
L 97.200844 48.692712 
L 97.310176 54.312364 
L 97.474174 58.776568 
L 97.692837 42.337786 
L 97.747503 43.440703 
L 97.856835 62.347936 
L 97.911501 55.940484 
L 97.966166 41.444944 
L 98.130164 68.177663 
L 98.239496 79.259404 
L 98.348828 76.528358 
L 98.458159 62.873134 
L 98.567491 71.32887 
L 98.676823 48.00995 
L 98.731489 52.841798 
L 99.004818 84.879052 
L 99.168816 66.024341 
L 99.278147 73.324634 
L 99.387479 71.591472 
L 99.496811 64.291178 
L 99.551477 67.967583 
L 99.606142 64.658817 
L 99.824806 54.680003 
L 99.988803 62.032813 
L 100.043469 60.142092 
L 100.152801 65.919303 
L 100.262133 61.507615 
L 100.371465 51.003598 
L 100.42613 59.196729 
L 100.480796 56.570724 
L 100.535462 57.253486 
L 100.644794 54.890083 
L 100.69946 55.572845 
L 100.754126 51.948956 
L 100.808791 55.152685 
L 100.863457 55.257722 
L 100.972789 60.877375 
L 101.027455 57.831205 
L 101.191453 64.55378 
L 101.35545 57.411045 
L 101.519448 65.499138 
L 101.574114 58.25137 
L 101.628779 73.16707 
L 101.683445 63.240778 
L 101.792777 48.325073 
L 101.847443 38.083652 
L 101.902109 46.014186 
L 101.956775 43.230628 
L 102.01144 18.126024 
L 102.066106 30.6258 
L 102.120772 20.909592 
L 102.394102 80.677444 
L 102.558099 51.266195 
L 102.667431 58.934127 
L 102.722097 66.969704 
L 102.776763 57.043406 
L 102.831428 64.081098 
L 102.886094 66.759624 
L 103.050092 27.579635 
L 103.104758 31.886291 
L 103.432753 75.162834 
L 103.706082 46.59191 
L 103.815414 64.081098 
L 103.87008 61.245014 
L 103.924746 65.078977 
L 103.979412 78.68168 
L 104.034077 77.998919 
L 104.143409 73.16707 
L 104.198075 74.217476 
L 104.252741 74.007396 
L 104.307407 79.889645 
L 104.471404 56.465687 
L 104.52607 58.619009 
L 104.635402 51.056114 
L 104.7994 61.612653 
L 104.854065 59.406809 
L 104.908731 67.494902 
L 104.963397 65.761739 
L 105.072729 56.728288 
L 105.236727 64.081098 
L 105.291392 46.696948 
L 105.346058 50.110756 
L 105.400724 48.955313 
L 105.45539 55.835446 
L 105.510056 54.995121 
L 105.564722 52.684239 
L 105.619388 54.36488 
L 105.838051 59.66941 
L 106.002049 75.425436 
L 106.166046 62.242893 
L 106.439376 75.372914 
L 106.603373 65.341579 
L 106.712705 72.32675 
L 106.767371 67.652465 
L 106.876702 83.35597 
L 106.931368 79.679565 
L 107.095366 71.276349 
L 107.150032 79.364442 
L 107.204698 78.944282 
L 107.314029 75.635516 
L 107.368695 78.996803 
L 107.423361 73.16707 
L 107.478027 76.948518 
L 107.69669 86.664736 
L 107.915354 76.475836 
L 107.97002 77.001039 
L 108.024686 82.673208 
L 108.188683 65.3941 
L 108.243349 66.864661 
L 108.407347 75.005275 
L 108.516678 69.963347 
L 108.680676 59.511851 
L 108.735342 63.188256 
L 108.899339 49.585554 
L 109.063337 54.627482 
L 109.118003 52.684239 
L 109.172669 52.211558 
L 109.227335 58.776568 
L 109.282001 50.793518 
L 109.336666 51.371237 
L 109.391332 62.610537 
L 109.445998 43.545746 
L 109.500664 53.051878 
L 109.609996 56.570724 
L 109.664662 51.423758 
L 109.828659 76.213235 
L 109.883325 74.375035 
L 109.937991 72.274229 
L 109.992657 63.503379 
L 110.047323 64.186136 
L 110.101988 79.154362 
L 110.156654 77.263641 
L 110.265986 67.389864 
L 110.320652 68.230185 
L 110.375318 78.26152 
L 110.429984 68.282706 
L 110.48465 64.3437 
L 110.648647 75.898117 
L 110.703313 75.582994 
L 110.757979 69.910826 
L 111.031308 90.656261 
L 111.195306 87.610096 
L 111.249972 89.50082 
L 111.413969 84.091248 
L 111.468635 85.509292 
L 111.523301 84.511413 
L 111.687299 80.204762 
L 111.79663 81.360206 
L 111.851296 80.887524 
L 111.905962 81.360206 
L 112.124625 82.305569 
L 112.288623 87.452535 
L 112.343289 86.927334 
L 112.507287 82.148005 
L 112.72595 87.872695 
L 112.780616 86.244575 
L 112.835282 83.98621 
L 112.889948 84.721493 
L 112.999279 82.725729 
L 113.053945 83.408491 
L 113.108611 84.038731 
L 113.163277 86.087011 
L 113.217943 85.141653 
L 113.327275 83.618571 
L 113.38194 84.19629 
L 113.545938 85.614335 
L 113.600604 83.828651 
L 113.65527 84.721493 
L 113.709936 84.826531 
L 113.819267 87.032375 
L 113.983265 83.933689 
L 114.092597 80.729965 
L 114.147262 82.095489 
L 114.31126 76.475836 
L 114.475258 81.937925 
L 114.529924 81.097604 
L 114.639255 72.589351 
L 114.693921 74.112433 
L 114.857919 77.001039 
L 114.96725 76.685916 
L 115.021916 72.95699 
L 115.076582 75.215355 
L 115.131248 73.114554 
L 115.295246 78.103961 
L 115.404577 71.11879 
L 115.568575 79.259404 
L 115.623241 75.477957 
L 115.677907 77.001039 
L 115.732573 77.001039 
L 115.787238 73.849832 
L 115.89657 80.572406 
L 115.951236 77.63128 
L 116.005902 80.204762 
L 116.060568 83.671087 
L 116.115234 80.414843 
L 116.169899 81.675328 
L 116.279231 89.763419 
L 116.333897 89.185697 
L 116.497895 94.647786 
L 116.552561 93.334784 
L 116.607226 92.441944 
L 116.771224 80.940045 
L 116.880556 88.870577 
L 116.989887 82.568165 
L 117.099219 87.137415 
L 117.208551 76.84348 
L 117.263217 82.778245 
L 117.427214 71.223828 
L 117.591212 63.240778 
L 117.645878 66.339463 
L 117.700544 76.108197 
L 117.75521 73.219592 
L 117.809875 73.744794 
L 117.973873 83.093368 
L 118.028539 79.259404 
L 118.083205 81.360206 
L 118.137871 87.767655 
L 118.192536 86.297092 
L 118.247202 86.507172 
L 118.356534 95.172989 
L 118.4112 94.332666 
L 118.520532 84.931573 
L 118.575198 90.288619 
L 118.629863 86.874816 
L 118.684529 85.561814 
L 118.793861 90.34114 
L 118.848527 88.923098 
L 118.903193 85.824415 
L 118.957859 86.402134 
L 119.012524 86.139533 
L 119.06719 81.832887 
L 119.231188 90.393659 
L 119.285854 90.813822 
L 119.34052 90.551221 
L 119.395186 90.708779 
L 119.449851 93.282265 
L 119.504517 92.494463 
L 119.613849 91.233982 
L 119.777847 86.664736 
L 119.887178 76.738438 
L 119.941844 78.786723 
L 120.105842 84.038731 
L 120.160508 83.671087 
L 120.324505 79.049324 
L 120.379171 79.784602 
L 120.433837 79.889645 
L 120.488503 79.784602 
L 120.597835 76.948518 
L 120.92583 88.187818 
L 121.035161 92.546984 
L 121.089827 90.13106 
L 121.144493 89.763419 
L 121.253825 86.087011 
L 121.308491 86.559693 
L 121.417823 85.089132 
L 121.527154 78.314041 
L 121.58182 78.996803 
L 121.636486 77.946402 
L 121.691152 82.883288 
L 121.745818 81.832887 
L 121.909815 72.11667 
L 121.964481 74.795195 
L 122.128479 69.280585 
L 122.183145 70.015868 
L 122.23781 65.078977 
L 122.292476 68.860425 
L 122.565806 59.932012 
L 122.620472 61.402573 
L 122.675137 59.87949 
L 122.729803 60.142092 
L 122.784469 64.711339 
L 122.839135 63.871018 
L 122.893801 62.085334 
L 122.948467 63.083214 
L 123.003133 64.448737 
L 123.16713 71.90659 
L 123.331128 74.007396 
L 123.495125 89.553339 
L 123.549791 87.820176 
L 123.604457 87.767655 
L 123.659123 89.028138 
L 123.823121 95.645668 
L 123.932452 91.916741 
L 124.09645 97.16875 
L 124.369779 79.206883 
L 124.424445 83.35597 
L 124.479111 75.898117 
L 124.533777 80.152241 
L 124.588443 76.42332 
L 124.643109 80.152241 
L 124.75244 85.771894 
L 124.916438 81.675328 
L 125.02577 86.612214 
L 125.080435 84.458892 
L 125.189767 79.837124 
L 125.353765 71.11879 
L 125.408431 72.064148 
L 125.463097 71.171312 
L 125.627094 79.311921 
L 125.68176 79.364442 
L 125.900423 87.137415 
L 126.009755 85.246691 
L 126.173753 91.128942 
L 126.228419 96.170871 
L 126.33775 96.06583 
L 126.501748 83.933689 
L 126.556414 87.189936 
L 126.61108 85.719372 
L 126.775077 82.358085 
L 126.939075 84.19629 
L 127.103072 78.208999 
L 127.157738 75.582994 
L 127.212404 79.154362 
L 127.26707 77.106077 
L 127.321736 77.001039 
L 127.376402 77.63128 
L 127.813729 98.219153 
L 127.92306 92.389423 
L 127.977726 100.530037 
L 128.032392 99.479634 
L 128.19639 83.145889 
L 128.360387 86.297092 
L 128.469719 89.448299 
L 128.579051 82.988331 
L 128.633717 90.183579 
L 128.688383 88.345377 
L 128.797714 83.35597 
L 128.907046 87.400016 
L 129.071044 78.366563 
L 129.235041 94.280147 
L 129.344373 92.179343 
L 129.399039 90.393659 
L 129.453705 91.496581 
L 129.508371 95.435588 
L 129.563036 94.962909 
L 129.617702 93.597385 
L 129.672368 97.06371 
L 129.727034 94.017545 
L 129.7817 94.227626 
L 129.836366 89.763419 
L 129.891032 92.179343 
L 129.945697 93.177225 
L 130.109695 87.977735 
L 130.273693 87.189936 
L 130.328359 95.488109 
L 130.383024 93.334784 
L 130.547022 88.082775 
L 130.765685 74.795195 
L 130.820351 80.624923 
L 130.875017 80.467364 
L 130.929683 78.786723 
L 131.093681 82.305569 
L 131.203012 79.416963 
L 131.36701 83.77613 
L 131.421676 78.68168 
L 131.531008 95.488109 
L 131.749671 76.370799 
L 131.859003 79.311921 
L 131.968334 76.6334 
L 132.023 77.106077 
L 132.077666 86.612214 
L 132.132332 83.250927 
L 132.186998 82.358085 
L 132.241664 79.154362 
L 132.29633 82.830767 
L 132.460327 72.064148 
L 132.678991 60.194613 
L 132.788322 67.599944 
L 132.842988 63.608417 
L 132.897654 67.284821 
L 132.95232 69.385628 
L 133.006986 68.072626 
L 133.170983 88.450417 
L 133.225649 85.929453 
L 133.280315 90.2361 
L 133.334981 88.502938 
L 133.389647 88.292858 
L 133.444313 89.343259 
L 133.662976 60.194613 
L 133.717642 67.02222 
L 133.826974 72.74691 
L 133.88164 67.337343 
L 133.936306 73.272113 
L 133.990971 72.799431 
L 134.045637 71.223828 
L 134.100303 73.272113 
L 134.154969 65.289058 
L 134.209635 70.120906 
L 134.264301 67.704982 
L 134.318967 72.484314 
L 134.373633 68.650345 
L 134.428298 65.551659 
L 134.592296 73.954875 
L 134.701628 69.123026 
L 134.756294 72.484314 
L 134.810959 66.181899 
L 134.865625 66.60206 
L 134.920291 72.694394 
L 134.974957 65.551659 
L 135.029623 67.337343 
L 135.084289 69.017984 
L 135.248286 62.663053 
L 135.357618 70.120906 
L 135.46695 66.076862 
L 135.630947 72.11667 
L 135.685613 72.32675 
L 135.740279 70.27847 
L 135.794945 70.751146 
L 135.904277 73.009511 
L 135.958943 76.685916 
L 136.013608 73.534714 
L 136.068274 75.005275 
L 136.12294 74.322514 
L 136.177606 73.797316 
L 136.232272 74.952754 
L 136.286938 74.480072 
L 136.341604 74.847716 
L 136.505601 84.40637 
L 136.669599 77.316157 
L 136.888262 86.717252 
L 136.942928 82.725729 
L 136.997594 84.143769 
L 137.216257 97.746472 
L 137.380255 85.036611 
L 137.434921 85.771894 
L 137.489587 82.095489 
L 137.653584 94.595267 
L 137.70825 94.805347 
L 137.872248 97.588913 
L 137.926914 94.385187 
L 137.98158 95.383069 
L 138.036245 95.698189 
L 138.254909 82.673208 
L 138.309575 85.40425 
L 138.364241 86.244575 
L 138.418907 86.087011 
L 138.692236 72.74691 
L 138.746902 75.215355 
L 138.801568 75.372914 
L 138.856233 73.114554 
L 138.965565 82.463128 
L 139.074897 75.688037 
L 139.129563 77.893881 
L 139.184229 75.740558 
L 139.29356 77.84136 
L 139.56689 67.284821 
L 139.676221 66.181899 
L 139.730887 68.230185 
L 139.840219 61.139971 
L 139.894885 63.293299 
L 140.058882 56.518203 
L 140.113548 57.831205 
L 140.168214 59.196729 
L 140.441544 43.650788 
L 140.605541 53.682119 
L 140.660207 52.001478 
L 140.769539 45.121349 
L 140.824205 55.730404 
L 140.87887 48.955313 
L 140.933536 47.222151 
L 140.988202 50.320836 
L 141.042868 45.383946 
L 141.097534 47.537273 
L 141.1522 50.110756 
L 141.261531 42.07518 
L 141.370863 55.205201 
L 141.425529 53.629602 
L 141.534861 44.228502 
L 141.589527 50.163278 
L 141.644193 45.331429 
L 141.698858 45.594026 
L 141.80819 53.787161 
L 141.862856 50.688475 
L 142.026854 43.913385 
L 142.354849 58.198849 
L 142.409515 52.999362 
L 142.464181 55.205201 
L 142.573512 53.209442 
L 142.628178 54.259843 
L 142.682844 54.890083 
L 142.73751 57.306007 
L 142.792176 48.535153 
L 142.846842 51.68636 
L 142.956173 57.516088 
L 143.010839 48.43011 
L 143.065505 53.1044 
L 143.120171 54.36488 
L 143.284168 66.60206 
L 143.338834 61.927775 
L 143.502832 81.727845 
L 143.557498 71.801552 
L 143.612164 75.898117 
L 143.66683 85.771894 
L 143.721495 70.225948 
L 143.776161 73.219592 
L 143.994825 85.246691 
L 144.049491 83.881167 
L 144.213488 92.704543 
L 144.268154 89.81594 
L 144.32282 90.446181 
L 144.377486 91.339022 
L 144.596149 75.793075 
L 144.650815 79.837124 
L 144.705481 79.416963 
L 144.814813 84.353849 
L 145.033476 79.679565 
L 145.142808 86.927334 
L 145.197474 86.034495 
L 145.306805 78.419079 
L 145.361471 81.307684 
L 145.470803 84.61645 
L 145.525469 80.887524 
L 145.580135 82.095489 
L 145.634801 85.40425 
L 145.744132 81.570286 
L 145.853464 88.713018 
L 146.017462 79.942161 
L 146.126793 76.160719 
L 146.236125 80.309805 
L 146.345457 73.16707 
L 146.509455 85.351733 
L 146.618786 78.89176 
L 146.673452 83.56605 
L 146.728118 82.148005 
L 146.892116 75.950638 
L 146.946781 83.98621 
L 147.001447 76.370799 
L 147.110779 67.757503 
L 147.220111 69.805788 
L 147.274777 68.492786 
L 147.438774 76.6334 
L 147.548106 70.961226 
L 147.602772 71.959111 
L 147.712104 77.683801 
L 147.766769 73.797316 
L 147.821435 67.704982 
L 147.876101 69.910826 
L 147.930767 72.064148 
L 147.985433 65.026461 
L 148.040099 71.013748 
L 148.204096 81.937925 
L 148.313428 67.232305 
L 148.368094 67.494902 
L 148.42276 65.656702 
L 148.532092 53.997241 
L 148.586757 63.345815 
L 148.641423 53.997241 
L 148.969418 71.32887 
L 149.133416 62.452973 
L 149.188082 61.560131 
L 149.242748 56.780805 
L 149.297414 61.087455 
L 149.406745 67.02222 
L 149.461411 64.238657 
L 149.516077 43.230628 
L 149.570743 61.402573 
L 149.625409 62.347936 
L 149.844072 75.582994 
L 149.953404 69.858309 
L 150.062736 64.028577 
L 150.117402 64.081098 
L 150.172067 64.028577 
L 150.226733 63.660938 
L 150.500063 48.22003 
L 150.609394 64.816381 
L 150.66406 63.660938 
L 150.718726 65.026461 
L 150.773392 52.52668 
L 150.828058 62.190377 
L 150.93739 60.877375 
L 150.992055 64.3437 
L 151.046721 60.772332 
L 151.101387 64.238657 
L 151.156053 67.127263 
L 151.210719 64.658817 
L 151.320051 57.778689 
L 151.484048 66.076862 
L 151.59338 62.085334 
L 151.702712 22.747787 
L 151.812043 66.234421 
L 151.866709 62.505495 
L 151.976041 66.024341 
L 152.030707 65.18402 
L 152.085373 65.919303 
L 152.140039 68.282706 
L 152.194704 65.919303 
L 152.304036 71.591472 
L 152.358702 62.400457 
L 152.413368 62.873134 
L 152.5227 76.84348 
L 152.577366 74.164955 
L 152.686697 70.90871 
L 152.741363 73.902353 
L 152.905361 52.736761 
L 153.069358 68.282706 
L 153.288022 57.148449 
L 153.397353 63.450858 
L 153.561351 49.322952 
L 153.616017 49.533032 
L 153.780015 64.658817 
L 153.889346 61.717695 
L 153.944012 57.568609 
L 153.998678 60.194613 
L 154.10801 64.921419 
L 154.217341 59.826969 
L 154.381339 63.871018 
L 154.490671 59.774453 
L 154.654668 68.702866 
L 154.818666 64.133619 
L 154.873332 65.078977 
L 154.927998 73.429672 
L 154.982664 64.868897 
L 155.091995 56.885847 
L 155.201327 68.440265 
L 155.255993 61.612653 
L 155.474656 45.856627 
L 155.529322 50.583438 
L 155.583988 42.547861 
L 155.638654 48.797754 
L 155.802652 36.823171 
L 155.857317 36.875693 
L 155.966649 48.272551 
L 156.075981 36.613096 
L 156.130647 37.400895 
L 156.239978 43.230628 
L 156.294644 40.657135 
L 156.34931 43.020543 
L 156.567974 54.522444 
L 156.62264 36.455532 
L 156.677305 44.911269 
L 156.731971 44.386066 
L 156.895969 64.3437 
L 157.169298 46.59191 
L 157.223964 47.537273 
L 157.27863 53.209442 
L 157.497293 35.982851 
L 157.551959 38.031131 
L 157.606625 45.96167 
L 157.661291 40.814699 
L 157.879954 48.22003 
L 157.989286 42.180222 
L 158.043952 31.728727 
L 158.098618 40.86722 
L 158.153284 44.806227 
L 158.20795 44.648663 
L 158.262615 38.031131 
L 158.481279 58.198849 
L 158.645277 44.54363 
L 158.754608 60.877375 
L 158.809274 50.268315 
L 158.86394 59.091691 
L 158.918606 52.211558 
L 158.973272 54.207322 
L 159.027938 56.413166 
L 159.137269 46.80199 
L 159.191935 50.163278 
L 159.355933 58.198849 
L 159.410599 56.045527 
L 159.465264 55.887963 
L 159.51993 57.726168 
L 159.574596 50.268315 
L 159.683928 69.753267 
L 159.738594 68.492786 
L 159.79326 65.446621 
L 159.847926 66.339463 
L 159.902591 68.125142 
L 159.957257 66.234421 
L 160.011923 72.904474 
L 160.066589 72.799431 
L 160.121255 72.32675 
L 160.175921 72.74691 
L 160.230587 72.904474 
L 160.285252 73.587231 
L 160.44925 80.099725 
L 160.503916 78.156482 
L 160.722579 84.931573 
L 161.10524 75.005275 
L 161.159906 77.473721 
L 161.214572 75.215355 
L 161.323904 68.440265 
L 161.542567 85.246691 
L 161.651899 82.200526 
L 161.815897 87.137415 
L 161.870563 86.664736 
L 161.925228 88.923098 
L 161.979894 88.292858 
L 162.089226 85.40425 
L 162.198558 87.977735 
L 162.307889 97.27379 
L 162.362555 96.64355 
L 162.526553 91.759183 
L 162.690551 81.412727 
L 162.854548 95.855748 
L 162.909214 95.488109 
L 163.018546 99.111995 
L 163.073212 97.798993 
L 163.127877 101.212796 
L 163.237209 96.85363 
L 163.346541 99.689714 
L 163.565204 89.133178 
L 163.61987 89.028138 
L 163.674536 90.34114 
L 164.166529 76.738438 
L 164.221195 83.723609 
L 164.275861 73.744794 
L 164.330526 83.35597 
L 164.494524 78.05144 
L 164.658522 83.250927 
L 164.877185 78.68168 
L 164.931851 81.307684 
L 164.986517 80.940045 
L 165.041183 80.414843 
L 165.095849 74.217476 
L 165.150514 76.528358 
L 165.20518 76.475836 
L 165.259846 77.526237 
L 165.314512 70.803668 
L 165.369178 75.688037 
L 165.423844 75.267877 
L 165.47851 82.042967 
L 165.533175 80.782487 
L 165.587841 79.574522 
L 165.751839 71.538951 
L 166.025168 75.950638 
L 166.189166 83.040847 
L 166.243832 83.671087 
L 166.298498 81.832887 
L 166.353163 82.463128 
L 166.407829 83.933689 
L 166.571827 79.522001 
L 166.626493 81.675328 
L 166.79049 78.26152 
L 167.009154 83.461007 
L 167.06382 80.099725 
L 167.118486 80.519885 
L 167.173151 81.045083 
L 167.227817 86.087011 
L 167.282483 83.723609 
L 167.391815 84.40637 
L 167.555812 81.202647 
L 167.774476 86.087011 
L 167.829142 82.778245 
L 167.938474 82.830767 
L 168.102471 77.001039 
L 168.157137 79.679565 
L 168.321135 82.515649 
L 168.430466 80.729965 
L 168.539798 82.148005 
L 168.64913 90.656261 
L 168.703796 82.883288 
L 168.758462 84.40637 
L 168.813127 87.715136 
L 168.867793 87.137415 
L 168.977125 83.828651 
L 169.031791 83.98621 
L 169.086457 85.666851 
L 169.250454 78.4716 
L 169.633115 92.704543 
L 169.687781 89.448299 
L 169.742447 91.339022 
L 169.797113 94.700307 
L 169.851779 84.879052 
L 169.906445 87.137415 
L 169.961111 87.294976 
L 170.015776 87.084896 
L 170.179774 93.282265 
L 170.23444 94.227626 
L 170.289106 93.229744 
L 170.398437 96.74859 
L 170.453103 94.280147 
L 170.507769 95.593149 
L 170.617101 97.588913 
L 170.671767 94.122585 
L 170.726433 101.055238 
L 170.781099 97.798993 
L 170.835764 97.851512 
L 170.945096 91.601621 
L 171.109094 100.424997 
L 171.16376 99.689714 
L 171.218425 102.840921 
L 171.273091 102.57832 
L 171.327757 101.370358 
L 171.382423 102.945961 
L 171.546421 97.431351 
L 171.655752 100.372476 
L 171.710418 99.584674 
L 171.874416 87.505056 
L 171.983748 87.925216 
L 172.093079 90.708779 
L 172.202411 82.200526 
L 172.257077 83.35597 
L 172.421074 97.956552 
L 172.585072 84.721493 
L 172.694404 86.927334 
L 172.74907 85.876931 
L 172.803736 77.683801 
L 172.858401 82.463128 
L 172.913067 87.137415 
L 173.077065 79.889645 
L 173.186397 89.185697 
L 173.350394 85.036611 
L 173.40506 85.141653 
L 173.623723 95.015427 
L 173.678389 91.916741 
L 173.787721 86.087011 
L 173.897053 92.599503 
L 173.951719 90.971381 
L 174.115716 79.101841 
L 174.279714 82.673208 
L 174.389046 84.091248 
L 174.443711 86.244575 
L 174.498377 85.981974 
L 174.553043 85.036611 
L 174.662375 88.502938 
L 174.717041 87.400016 
L 174.771707 87.242455 
L 174.935704 97.431351 
L 175.209034 82.515649 
L 175.318365 87.820176 
L 175.373031 87.715136 
L 175.64636 81.517765 
L 175.810358 84.984089 
L 175.865024 101.895558 
L 175.974356 101.632959 
L 176.083687 102.68336 
L 176.138353 102.47328 
L 176.193019 103.156041 
L 176.247685 102.68336 
L 176.302351 102.57832 
L 176.466348 95.120467 
L 176.521014 91.654143 
L 176.57568 93.124704 
L 176.630346 93.439826 
L 176.903675 99.689714 
L 177.122339 104.416522 
L 177.286336 97.798993 
L 177.395668 100.740117 
L 177.450334 98.901915 
L 177.559666 101.265318 
L 177.614332 101.055238 
L 177.668997 102.315718 
L 177.723663 99.111995 
L 177.778329 99.899794 
L 177.887661 101.737999 
L 177.942327 100.950197 
L 178.051659 106.517326 
L 178.106324 102.99848 
L 178.16099 105.677006 
L 178.379654 114.657939 
L 178.43432 115.393221 
L 178.488985 115.183141 
L 178.598317 110.929013 
L 178.652983 111.716815 
L 178.871647 115.498261 
L 178.926312 113.870138 
L 178.980978 107.252607 
L 179.035644 109.826092 
L 179.09031 108.93325 
L 179.308973 115.078101 
L 179.363639 115.393221 
L 179.418305 113.082337 
L 179.472971 118.807026 
L 179.527637 116.653703 
L 179.691634 105.204324 
L 179.7463 108.72317 
L 179.855632 105.099284 
L 179.910298 101.527919 
L 179.964964 102.89344 
L 180.01963 105.677006 
L 180.074296 103.943843 
L 180.128961 102.735881 
L 180.183627 103.366122 
L 180.292959 105.466925 
L 180.347625 109.668531 
L 180.402291 102.840921 
L 180.456957 107.462687 
L 180.566288 104.101402 
L 180.67562 110.718933 
L 180.730286 106.884968 
L 181.058281 99.164514 
L 181.222279 109.24837 
L 181.33161 100.162396 
L 181.386276 101.370358 
L 181.440942 104.994244 
L 181.550274 98.954434 
L 181.714271 108.460569 
L 181.768937 108.67065 
L 181.823603 109.458451 
L 181.878269 107.882848 
L 181.987601 111.664295 
L 182.096933 103.62872 
L 182.206264 116.391103 
L 182.26093 114.815499 
L 182.370262 115.288181 
L 182.424928 109.24837 
L 182.479594 116.443623 
L 182.534259 115.235661 
L 182.588925 115.078101 
L 182.752923 96.06583 
L 182.807589 98.324193 
L 182.862255 97.483873 
L 182.916921 99.427115 
L 182.971586 106.359765 
L 183.026252 101.632959 
L 183.080918 102.315718 
L 183.135584 105.939605 
L 183.19025 105.414404 
L 183.299582 102.47328 
L 183.408913 108.51309 
L 183.518245 99.742235 
L 183.572911 100.319957 
L 183.736908 112.767217 
L 183.791574 110.876493 
L 183.84624 100.319957 
L 183.900906 101.737999 
L 183.955572 100.687596 
L 184.010238 101.370358 
L 184.064904 103.3136 
L 184.174235 95.435588 
L 184.283567 108.145448 
L 184.338233 104.206442 
L 184.392899 98.324193 
L 184.447565 104.101402 
L 184.502231 105.046763 
L 184.556896 102.525798 
L 184.611562 103.943843 
L 184.666228 104.994244 
L 184.830226 113.870138 
L 184.884892 113.082337 
L 185.048889 106.884968 
L 185.158221 99.322075 
L 185.212887 100.267436 
L 185.322219 102.15816 
L 185.376884 101.790518 
L 185.43155 100.950197 
L 185.540882 96.85363 
L 185.595548 97.746472 
L 185.650214 97.221271 
L 185.759545 101.107756 
L 185.978209 93.912505 
L 186.087541 97.483873 
L 186.142207 97.06371 
L 186.415536 88.030256 
L 186.470202 88.292858 
L 186.524868 89.81594 
L 186.579533 89.395777 
L 186.688865 87.977735 
L 186.743531 92.809583 
L 186.798197 90.02602 
L 186.852863 88.502938 
L 186.907529 89.50082 
L 186.962195 92.284383 
L 187.126192 88.555457 
L 187.180858 89.448299 
L 187.235524 92.967145 
L 187.29019 91.864223 
L 187.399521 87.032375 
L 187.454187 88.713018 
L 187.508853 90.498699 
L 187.563519 89.973499 
L 187.618185 90.078539 
L 187.672851 90.551221 
L 187.727517 92.757065 
L 187.891514 85.824415 
L 187.94618 86.927334 
L 188.055512 84.668972 
L 188.164844 88.135296 
L 188.274175 81.937925 
L 188.438173 91.496581 
L 188.492839 89.92098 
L 188.60217 94.332666 
L 188.656836 92.284383 
L 188.711502 88.292858 
L 188.766168 90.13106 
L 188.930166 98.429233 
L 188.984832 98.954434 
L 189.039497 97.16875 
L 189.094163 100.214917 
L 189.148829 98.271672 
L 189.258161 100.582556 
L 189.312827 94.385187 
L 189.367493 98.586792 
L 189.422158 97.851512 
L 189.476824 101.685478 
L 189.640822 94.490227 
L 189.750154 92.546984 
L 189.804819 93.544866 
L 189.859485 96.95867 
L 189.914151 93.072185 
L 189.968817 94.122585 
L 190.023483 94.332666 
L 190.132815 96.801111 
L 190.187481 96.591031 
L 190.242146 95.330547 
L 190.351478 99.847275 
L 190.406144 94.700307 
L 190.46081 99.111995 
L 190.515476 96.223389 
L 190.570142 97.851512 
L 190.679473 105.992126 
L 190.734139 105.834564 
L 190.788805 105.519444 
L 190.898137 98.744354 
L 191.007469 106.884968 
L 191.062134 106.044645 
L 191.171466 103.62872 
L 191.226132 103.838801 
L 191.280798 106.832446 
L 191.39013 101.895558 
L 191.444795 103.733761 
L 191.499461 102.735881 
L 191.554127 103.576202 
L 191.827457 114.552899 
L 191.882122 114.605419 
L 192.04612 111.611775 
L 192.100786 113.449977 
L 192.319449 102.36824 
L 192.374115 103.576202 
L 192.483447 109.405931 
L 192.538113 106.937486 
L 192.756776 92.809583 
L 192.97544 102.420758 
L 193.030106 99.899794 
L 193.084771 100.057356 
L 193.248769 104.469044 
L 193.522098 88.555457 
L 193.686096 108.51309 
L 193.740762 106.202206 
L 193.795428 105.151803 
L 193.850094 109.09081 
L 193.904759 107.095048 
L 193.959425 103.786282 
L 194.123423 110.298772 
L 194.396752 98.849394 
L 194.506084 90.288619 
L 194.670081 104.994244 
L 194.779413 98.271672 
L 194.834079 98.534273 
L 194.888745 100.424997 
L 195.107408 84.721493 
L 195.162074 90.708779 
L 195.21674 90.656261 
L 195.380738 70.593587 
L 195.490069 65.971819 
L 195.654067 74.217476 
L 195.763399 82.568165 
L 195.982062 69.123026 
L 196.036728 70.961226 
L 196.091394 69.017984 
L 196.255392 76.108197 
L 196.310057 69.963347 
L 196.364723 74.480072 
L 196.419389 73.114554 
L 196.474055 76.055676 
L 196.528721 70.856189 
L 196.583387 75.005275 
L 196.747384 79.101841 
L 196.80205 78.89176 
L 196.911382 83.77613 
L 196.966048 76.055676 
L 197.020714 77.316157 
L 197.130045 84.931573 
L 197.184711 82.883288 
L 197.239377 81.937925 
L 197.294043 85.561814 
L 197.348709 85.246691 
L 197.403375 81.675328 
L 197.458041 81.937925 
L 197.567372 86.192054 
L 197.786036 80.572406 
L 197.840702 79.101841 
L 197.895368 79.627043 
L 198.059365 87.137415 
L 198.223363 80.782487 
L 198.278029 83.35597 
L 198.332694 83.145889 
L 198.442026 81.570286 
L 198.551358 84.774009 
L 198.606024 84.301333 
L 198.66069 84.984089 
L 198.715355 84.563929 
L 198.770021 84.19629 
L 198.988685 77.736322 
L 199.152682 78.26152 
L 199.426012 85.876931 
L 199.480678 85.771894 
L 199.590009 83.250927 
L 199.699341 86.927334 
L 199.754007 84.563929 
L 199.863339 85.666851 
L 199.918005 85.299212 
L 199.97267 83.35597 
L 200.082002 89.7109 
L 200.136668 88.555457 
L 200.191334 86.192054 
L 200.246 90.34114 
L 200.300666 88.135296 
L 200.355331 90.183579 
L 200.409997 89.238218 
L 200.464663 86.822294 
L 200.519329 87.400016 
L 200.628661 89.238218 
L 200.847324 83.093368 
L 200.956656 90.813822 
L 201.011322 101.895558 
L 201.065988 92.914623 
L 201.175319 84.038731 
L 201.229985 84.511413 
L 201.339317 86.664736 
L 201.393983 91.759183 
L 201.448649 86.664736 
L 201.503315 90.078539 
L 201.55798 86.087011 
L 201.612646 90.078539 
L 201.721978 86.507172 
L 201.940642 94.857868 
L 202.159305 92.809583 
L 202.213971 92.914623 
L 202.268637 89.973499 
L 202.323303 91.601621 
L 202.377968 92.126824 
L 202.596632 87.610096 
L 202.705964 91.759183 
L 202.924627 82.410606 
L 203.197956 92.126824 
L 203.361954 85.40425 
L 203.41662 89.028138 
L 203.471286 86.612214 
L 203.525952 86.717252 
L 203.580617 88.187818 
L 203.689949 80.729965 
L 203.799281 88.397898 
L 203.908613 78.89176 
L 204.017944 86.139533 
L 204.127276 85.981974 
L 204.181942 84.931573 
L 204.236608 86.822294 
L 204.291274 93.439826 
L 204.34594 89.60586 
L 204.400605 91.128942 
L 204.455271 88.975617 
L 204.509937 93.912505 
L 204.564603 89.290737 
L 204.619269 84.40637 
L 204.783266 97.588913 
L 204.837932 94.752828 
L 204.892598 96.74859 
L 205.00193 96.433469 
L 205.056596 100.004837 
L 205.111262 96.906151 
L 205.275259 88.870577 
L 205.493923 92.967145 
L 205.548589 91.233982 
L 205.65792 102.315718 
L 205.712586 113.344937 
L 205.767252 104.416522 
L 205.876584 90.393659 
L 205.93125 91.969263 
L 205.985916 89.185697 
L 206.204579 102.99848 
L 206.313911 95.120467 
L 206.368577 97.798993 
L 206.477908 99.006955 
L 206.58724 95.698189 
L 206.641906 99.952316 
L 206.696572 97.693953 
L 206.751238 97.378833 
L 206.805903 95.593149 
L 206.860569 110.246252 
L 206.915235 102.68336 
L 207.079233 96.95867 
L 207.133899 96.013309 
L 207.188565 96.696071 
L 207.24323 97.641432 
L 207.297896 100.687596 
L 207.297896 100.687596 
" clip-path="url(#p840fe19bec)" style="fill: none; stroke: #e69f00; stroke-width: 1.5; stroke-linecap: square"/>
   </g>
   <g id="patch_3">
    <path d="M 42.04572 124.321635 
L 42.04572 3.00024 
" style="fill: none; stroke: #000000; stroke-width: 0.8; stroke-linejoin: miter; stroke-linecap: square"/>
   </g>
   <g id="patch_4">
    <path d="M 215.167048 124.321635 
L 215.167048 3.00024 
" style="fill: none; stroke: #000000; stroke-width: 0.8; stroke-linejoin: miter; stroke-linecap: square"/>
   </g>
   <g id="patch_5">
    <path d="M 42.04572 124.321635 
L 215.167048 124.321635 
" style="fill: none; stroke: #000000; stroke-width: 0.8; stroke-linejoin: miter; stroke-linecap: square"/>
   </g>
   <g id="patch_6">
    <path d="M 42.04572 3.00024 
L 215.167048 3.00024 
" style="fill: none; stroke: #000000; stroke-width: 0.8; stroke-linejoin: miter; stroke-linecap: square"/>
   </g>
  </g>
  <g id="axes_2">
   <g id="patch_7">
    <path d="M 238.053432 124.321635 
L 411.17476 124.321635 
L 411.17476 3.00024 
L 238.053432 3.00024 
z
" style="fill: #ffffff"/>
   </g>
   <g id="matplotlib.axis_3">
    <g id="xtick_4">
     <g id="line2d_9">
      <g>
       <use xlink:href="#m49e7af0efd" x="245.922584" y="124.321635" style="stroke: #000000; stroke-width: 0.8"/>
      </g>
     </g>
     <g id="text_8">
      <!-- Day 1 -->
      <g transform="translate(231.278834 138.920073) scale(0.1 -0.1)">
       <use xlink:href="#DejaVuSans-44"/>
       <use xlink:href="#DejaVuSans-61" x="77.001953"/>
       <use xlink:href="#DejaVuSans-79" x="138.28125"/>
       <use xlink:href="#DejaVuSans-20" x="197.460938"/>
       <use xlink:href="#DejaVuSans-31" x="229.248047"/>
      </g>
     </g>
    </g>
    <g id="xtick_5">
     <g id="line2d_10">
      <g>
       <use xlink:href="#m49e7af0efd" x="325.109011" y="124.321635" style="stroke: #000000; stroke-width: 0.8"/>
      </g>
     </g>
     <g id="text_9">
      <!-- Day 10 -->
      <g transform="translate(307.284011 138.920073) scale(0.1 -0.1)">
       <use xlink:href="#DejaVuSans-44"/>
       <use xlink:href="#DejaVuSans-61" x="77.001953"/>
       <use xlink:href="#DejaVuSans-79" x="138.28125"/>
       <use xlink:href="#DejaVuSans-20" x="197.460938"/>
       <use xlink:href="#DejaVuSans-31" x="229.248047"/>
       <use xlink:href="#DejaVuSans-30" x="292.871094"/>
      </g>
     </g>
    </g>
    <g id="xtick_6">
     <g id="line2d_11">
      <g>
       <use xlink:href="#m49e7af0efd" x="404.295439" y="124.321635" style="stroke: #000000; stroke-width: 0.8"/>
      </g>
     </g>
     <g id="text_10">
      <!-- Day 20 -->
      <g transform="translate(386.470439 138.920073) scale(0.1 -0.1)">
       <use xlink:href="#DejaVuSans-44"/>
       <use xlink:href="#DejaVuSans-61" x="77.001953"/>
       <use xlink:href="#DejaVuSans-79" x="138.28125"/>
       <use xlink:href="#DejaVuSans-20" x="197.460938"/>
       <use xlink:href="#DejaVuSans-32" x="229.248047"/>
       <use xlink:href="#DejaVuSans-30" x="292.871094"/>
      </g>
     </g>
    </g>
   </g>
   <g id="matplotlib.axis_4">
    <g id="ytick_5">
     <g id="line2d_12">
      <g>
       <use xlink:href="#m590f6bcb4c" x="238.053432" y="102.57832" style="stroke: #000000; stroke-width: 0.8"/>
      </g>
     </g>
    </g>
    <g id="ytick_6">
     <g id="line2d_13">
      <g>
       <use xlink:href="#m590f6bcb4c" x="238.053432" y="76.318277" style="stroke: #000000; stroke-width: 0.8"/>
      </g>
     </g>
    </g>
    <g id="ytick_7">
     <g id="line2d_14">
      <g>
       <use xlink:href="#m590f6bcb4c" x="238.053432" y="50.058235" style="stroke: #000000; stroke-width: 0.8"/>
      </g>
     </g>
    </g>
    <g id="ytick_8">
     <g id="line2d_15">
      <g>
       <use xlink:href="#m590f6bcb4c" x="238.053432" y="23.798193" style="stroke: #000000; stroke-width: 0.8"/>
      </g>
     </g>
    </g>
   </g>
   <g id="line2d_16">
    <path d="M 245.922584 81.202647 
L 246.912414 90.971381 
L 247.902244 92.441944 
L 248.892075 80.835003 
L 249.881905 89.81594 
L 250.871735 90.446181 
L 251.861566 93.754946 
L 253.841227 60.824853 
L 254.831057 49.165393 
L 255.820887 50.005714 
L 256.810718 53.892199 
L 257.800548 49.165393 
L 259.780209 80.414843 
L 260.770039 76.948518 
L 261.759869 90.603739 
L 262.7497 82.253048 
L 263.73953 85.824415 
L 264.72936 92.809583 
L 265.719191 77.63128 
L 266.709021 73.692273 
L 267.698851 63.030697 
L 269.678512 59.45933 
L 270.668342 52.841798 
L 271.658173 33.671964 
L 272.648003 28.735083 
L 273.637833 52.159036 
L 274.627664 56.360644 
L 275.617494 63.083214 
L 276.607324 57.095927 
L 277.597155 61.192492 
L 278.586985 52.421638 
L 279.576815 59.354292 
L 280.566646 75.635516 
L 281.556476 70.961226 
L 282.546307 58.356408 
L 283.536137 76.948518 
L 284.525967 91.023902 
L 285.515798 92.021782 
L 286.505628 92.074303 
L 287.495458 97.904033 
L 288.485289 89.553339 
L 289.475119 77.893881 
L 290.464949 62.295414 
L 291.45478 73.219592 
L 292.44461 61.507615 
L 293.43444 55.730404 
L 294.424271 68.177663 
L 295.414101 66.234421 
L 297.393762 63.188256 
L 298.383592 30.6258 
L 299.373422 27.579635 
L 300.363253 77.998919 
L 301.353083 57.726168 
L 302.342913 75.425436 
L 303.332744 74.690153 
L 304.322574 77.001039 
L 305.312404 51.108636 
L 306.302235 72.274229 
L 307.292065 82.305569 
L 308.281896 81.360206 
L 309.271726 84.721493 
L 310.261556 84.984089 
L 311.251387 77.001039 
L 312.241217 77.893881 
L 313.231047 88.502938 
L 314.220878 73.744794 
L 315.210708 90.34114 
L 316.200538 86.664736 
L 317.190369 85.614335 
L 318.180199 81.832887 
L 319.170029 60.142092 
L 320.15986 92.967145 
L 321.14969 83.933689 
L 322.13952 79.364442 
L 323.129351 84.143769 
L 324.119181 94.280147 
L 325.109011 90.183579 
L 326.098842 93.597385 
L 327.088672 81.465243 
L 328.078502 87.189936 
L 329.068333 67.704982 
L 330.058163 78.786723 
L 331.047993 68.912946 
L 332.037824 71.32887 
L 333.027654 84.40637 
L 334.017485 82.095489 
L 335.007315 83.35597 
L 335.997145 70.961226 
L 336.986976 43.650788 
L 337.976806 53.629602 
L 338.966636 52.999362 
L 339.956467 74.585115 
L 340.946297 91.339022 
L 341.936127 81.307684 
L 342.925958 73.16707 
L 343.915788 75.582994 
L 344.905618 67.232305 
L 345.895449 61.087455 
L 346.885279 61.192492 
L 347.875109 60.404693 
L 348.86494 67.652465 
L 349.85477 59.721931 
L 350.8446 59.826969 
L 351.834431 68.440265 
L 352.824261 42.127701 
L 353.814091 46.59191 
L 354.803922 44.806227 
L 355.793752 46.80199 
L 356.783582 72.32675 
L 357.773413 75.005275 
L 358.763243 85.40425 
L 359.753074 97.798993 
L 360.742904 81.202647 
L 361.732734 80.414843 
L 362.722565 75.950638 
L 363.712395 83.461007 
L 364.702225 81.360206 
L 365.692056 83.828651 
L 366.681886 87.294976 
L 367.671716 91.601621 
L 368.661547 91.969263 
L 369.651377 87.137415 
L 370.641207 92.599503 
L 371.631038 96.74859 
L 372.620868 101.895558 
L 373.610698 97.27379 
L 374.600529 101.002716 
L 375.590359 115.130621 
L 376.580189 107.462687 
L 377.57002 105.466925 
L 378.55985 108.67065 
L 379.54968 96.06583 
L 380.539511 112.767217 
L 381.529341 108.250489 
L 383.509002 87.977735 
L 384.498832 90.551221 
L 385.488663 92.284383 
L 386.478493 94.490227 
L 387.468323 102.57832 
L 388.458154 106.727406 
L 389.447984 102.57832 
L 390.437814 94.962909 
L 391.427645 96.433469 
L 392.417475 74.112433 
L 393.407305 70.856189 
L 394.397136 85.719372 
L 395.386966 83.77613 
L 396.376796 85.771894 
L 397.366627 86.822294 
L 398.356457 86.664736 
L 399.346287 91.076421 
L 400.336118 89.028138 
L 401.325948 91.128942 
L 402.315778 91.233982 
L 403.305609 97.798993 
L 403.305609 97.798993 
" clip-path="url(#p47887bcc55)" style="fill: none; stroke: #e69f00; stroke-width: 1.5; stroke-linecap: square"/>
   </g>
   <g id="patch_8">
    <path d="M 238.053432 124.321635 
L 238.053432 3.00024 
" style="fill: none; stroke: #000000; stroke-width: 0.8; stroke-linejoin: miter; stroke-linecap: square"/>
   </g>
   <g id="patch_9">
    <path d="M 411.17476 124.321635 
L 411.17476 3.00024 
" style="fill: none; stroke: #000000; stroke-width: 0.8; stroke-linejoin: miter; stroke-linecap: square"/>
   </g>
   <g id="patch_10">
    <path d="M 238.053432 124.321635 
L 411.17476 124.321635 
" style="fill: none; stroke: #000000; stroke-width: 0.8; stroke-linejoin: miter; stroke-linecap: square"/>
   </g>
   <g id="patch_11">
    <path d="M 238.053432 3.00024 
L 411.17476 3.00024 
" style="fill: none; stroke: #000000; stroke-width: 0.8; stroke-linejoin: miter; stroke-linecap: square"/>
   </g>
  </g>
  <g id="axes_3">
   <g id="patch_12">
    <path d="M 42.04572 268.321635 
L 215.167048 268.321635 
L 215.167048 147.00024 
L 42.04572 147.00024 
z
" style="fill: #ffffff"/>
   </g>
   <g id="matplotlib.axis_5">
    <g id="xtick_7">
     <g id="line2d_17">
      <g>
       <use xlink:href="#m49e7af0efd" x="49.914871" y="268.321635" style="stroke: #000000; stroke-width: 0.8"/>
      </g>
     </g>
     <g id="text_11">
      <!-- Day 1 -->
      <g transform="translate(35.271121 282.920073) scale(0.1 -0.1)">
       <use xlink:href="#DejaVuSans-44"/>
       <use xlink:href="#DejaVuSans-61" x="77.001953"/>
       <use xlink:href="#DejaVuSans-79" x="138.28125"/>
       <use xlink:href="#DejaVuSans-20" x="197.460938"/>
       <use xlink:href="#DejaVuSans-31" x="229.248047"/>
      </g>
     </g>
    </g>
    <g id="xtick_8">
     <g id="line2d_18">
      <g>
       <use xlink:href="#m49e7af0efd" x="120.648815" y="268.321635" style="stroke: #000000; stroke-width: 0.8"/>
      </g>
     </g>
     <g id="text_12">
      <!-- Day 10 -->
      <g transform="translate(102.823815 282.920073) scale(0.1 -0.1)">
       <use xlink:href="#DejaVuSans-44"/>
       <use xlink:href="#DejaVuSans-61" x="77.001953"/>
       <use xlink:href="#DejaVuSans-79" x="138.28125"/>
       <use xlink:href="#DejaVuSans-20" x="197.460938"/>
       <use xlink:href="#DejaVuSans-31" x="229.248047"/>
       <use xlink:href="#DejaVuSans-30" x="292.871094"/>
      </g>
     </g>
    </g>
    <g id="xtick_9">
     <g id="line2d_19">
      <g>
       <use xlink:href="#m49e7af0efd" x="191.382759" y="268.321635" style="stroke: #000000; stroke-width: 0.8"/>
      </g>
     </g>
     <g id="text_13">
      <!-- Day 20 -->
      <g transform="translate(173.557759 282.920073) scale(0.1 -0.1)">
       <use xlink:href="#DejaVuSans-44"/>
       <use xlink:href="#DejaVuSans-61" x="77.001953"/>
       <use xlink:href="#DejaVuSans-79" x="138.28125"/>
       <use xlink:href="#DejaVuSans-20" x="197.460938"/>
       <use xlink:href="#DejaVuSans-32" x="229.248047"/>
       <use xlink:href="#DejaVuSans-30" x="292.871094"/>
      </g>
     </g>
    </g>
   </g>
   <g id="matplotlib.axis_6">
    <g id="ytick_9">
     <g id="line2d_20">
      <g>
       <use xlink:href="#m590f6bcb4c" x="42.04572" y="246.57832" style="stroke: #000000; stroke-width: 0.8"/>
      </g>
     </g>
     <g id="text_14">
      <!-- 5 -->
      <g transform="translate(28.68322 250.377539) scale(0.1 -0.1)">
       <use xlink:href="#DejaVuSans-35"/>
      </g>
     </g>
    </g>
    <g id="ytick_10">
     <g id="line2d_21">
      <g>
       <use xlink:href="#m590f6bcb4c" x="42.04572" y="220.318277" style="stroke: #000000; stroke-width: 0.8"/>
      </g>
     </g>
     <g id="text_15">
      <!-- 10 -->
      <g transform="translate(22.32072 224.117496) scale(0.1 -0.1)">
       <use xlink:href="#DejaVuSans-31"/>
       <use xlink:href="#DejaVuSans-30" x="63.623047"/>
      </g>
     </g>
    </g>
    <g id="ytick_11">
     <g id="line2d_22">
      <g>
       <use xlink:href="#m590f6bcb4c" x="42.04572" y="194.058235" style="stroke: #000000; stroke-width: 0.8"/>
      </g>
     </g>
     <g id="text_16">
      <!-- 15 -->
      <g transform="translate(22.32072 197.857454) scale(0.1 -0.1)">
       <use xlink:href="#DejaVuSans-31"/>
       <use xlink:href="#DejaVuSans-35" x="63.623047"/>
      </g>
     </g>
    </g>
    <g id="ytick_12">
     <g id="line2d_23">
      <g>
       <use xlink:href="#m590f6bcb4c" x="42.04572" y="167.798193" style="stroke: #000000; stroke-width: 0.8"/>
      </g>
     </g>
     <g id="text_17">
      <!-- 20 -->
      <g transform="translate(22.32072 171.597411) scale(0.1 -0.1)">
       <use xlink:href="#DejaVuSans-32"/>
       <use xlink:href="#DejaVuSans-30" x="63.623047"/>
      </g>
     </g>
    </g>
   </g>
   <g id="line2d_24">
    <path d="M 49.914871 225.202647 
L 51.68322 233.290737 
L 53.451568 229.19417 
L 55.219917 233.395777 
L 56.988266 220.42332 
L 58.756614 195.003598 
L 60.524963 192.955313 
L 62.293311 186.390308 
L 64.06166 222.26152 
L 65.830009 234.603739 
L 67.598357 221.736322 
L 69.366706 235.233982 
L 71.135054 207.083214 
L 72.903403 198.680003 
L 74.671752 197.051878 
L 76.4401 178.249688 
L 78.208449 191.117108 
L 79.976797 204.824853 
L 81.745146 205.192492 
L 83.513495 224.782487 
L 85.281843 214.330986 
L 87.050192 203.301771 
L 88.81854 221.578758 
L 90.586889 232.450417 
L 92.355238 235.759183 
L 94.123586 203.45933 
L 95.891935 207.871018 
L 97.660283 199.730404 
L 99.428632 212.912946 
L 101.196981 198.890083 
L 102.965329 224.677444 
L 104.733678 217.16707 
L 106.502026 216.589351 
L 108.270375 227.723609 
L 110.038724 206.610537 
L 111.807072 233.50082 
L 113.575421 228.721493 
L 115.343769 216.589351 
L 117.112118 235.023902 
L 118.880466 231.767655 
L 120.648815 220.738438 
L 122.417164 221.946402 
L 124.185512 223.311921 
L 125.953861 227.198411 
L 127.722209 227.828651 
L 129.490558 234.183579 
L 131.258907 237.334784 
L 133.027255 227.250927 
L 134.795604 211.337343 
L 136.563952 216.11667 
L 138.332301 229.036611 
L 140.10065 221.893881 
L 141.868998 192.955313 
L 143.637347 198.259843 
L 145.405695 235.339022 
L 147.174044 220.160719 
L 148.942393 213.910826 
L 150.710741 206.347936 
L 152.47909 206.978176 
L 154.247438 207.818497 
L 156.015787 209.078977 
L 157.784136 180.455532 
L 159.552484 195.68636 
L 161.320833 216.32675 
L 163.089181 230.664736 
L 164.85753 233.028138 
L 166.625879 219.688037 
L 168.394227 224.519885 
L 170.162576 231.137415 
L 171.930924 241.588913 
L 173.699273 236.284383 
L 175.467622 223.101841 
L 177.23597 245.895558 
L 179.004319 245.055238 
L 180.772667 259.393221 
L 182.541016 247.838801 
L 184.309365 241.483873 
L 186.077713 247.943843 
L 187.846062 233.448299 
L 189.61441 229.981974 
L 191.382759 240.95867 
L 193.151107 250.727406 
L 194.919456 238.385187 
L 196.687805 228.721493 
L 198.456153 225.045083 
L 200.224502 228.301333 
L 201.99285 234.183579 
L 203.761199 236.809583 
L 205.529548 225.780366 
L 207.297896 239.278029 
" clip-path="url(#p5ac3e8c404)" style="fill: none; stroke: #e69f00; stroke-width: 1.5; stroke-linecap: square"/>
   </g>
   <g id="patch_13">
    <path d="M 42.04572 268.321635 
L 42.04572 147.00024 
" style="fill: none; stroke: #000000; stroke-width: 0.8; stroke-linejoin: miter; stroke-linecap: square"/>
   </g>
   <g id="patch_14">
    <path d="M 215.167048 268.321635 
L 215.167048 147.00024 
" style="fill: none; stroke: #000000; stroke-width: 0.8; stroke-linejoin: miter; stroke-linecap: square"/>
   </g>
   <g id="patch_15">
    <path d="M 42.04572 268.321635 
L 215.167048 268.321635 
" style="fill: none; stroke: #000000; stroke-width: 0.8; stroke-linejoin: miter; stroke-linecap: square"/>
   </g>
   <g id="patch_16">
    <path d="M 42.04572 147.00024 
L 215.167048 147.00024 
" style="fill: none; stroke: #000000; stroke-width: 0.8; stroke-linejoin: miter; stroke-linecap: square"/>
   </g>
  </g>
  <g id="axes_4">
   <g id="patch_17">
    <path d="M 238.053432 268.321635 
L 411.17476 268.321635 
L 411.17476 147.00024 
L 238.053432 147.00024 
z
" style="fill: #ffffff"/>
   </g>
   <g id="matplotlib.axis_7">
    <g id="xtick_10">
     <g id="line2d_25">
      <g>
       <use xlink:href="#m49e7af0efd" x="245.903803" y="268.321635" style="stroke: #000000; stroke-width: 0.8"/>
      </g>
     </g>
     <g id="text_18">
      <!-- Day 1 -->
      <g transform="translate(231.260053 282.920073) scale(0.1 -0.1)">
       <use xlink:href="#DejaVuSans-44"/>
       <use xlink:href="#DejaVuSans-61" x="77.001953"/>
       <use xlink:href="#DejaVuSans-79" x="138.28125"/>
       <use xlink:href="#DejaVuSans-20" x="197.460938"/>
       <use xlink:href="#DejaVuSans-31" x="229.248047"/>
      </g>
     </g>
    </g>
    <g id="xtick_11">
     <g id="line2d_26">
      <g>
       <use xlink:href="#m49e7af0efd" x="328.539281" y="268.321635" style="stroke: #000000; stroke-width: 0.8"/>
      </g>
     </g>
     <g id="text_19">
      <!-- Day 10 -->
      <g transform="translate(310.714281 282.920073) scale(0.1 -0.1)">
       <use xlink:href="#DejaVuSans-44"/>
       <use xlink:href="#DejaVuSans-61" x="77.001953"/>
       <use xlink:href="#DejaVuSans-79" x="138.28125"/>
       <use xlink:href="#DejaVuSans-20" x="197.460938"/>
       <use xlink:href="#DejaVuSans-31" x="229.248047"/>
       <use xlink:href="#DejaVuSans-30" x="292.871094"/>
      </g>
     </g>
    </g>
    <g id="xtick_12">
     <g id="line2d_27">
      <g>
       <use xlink:href="#m49e7af0efd" x="411.17476" y="268.321635" style="stroke: #000000; stroke-width: 0.8"/>
      </g>
     </g>
     <g id="text_20">
      <!-- Day 20 -->
      <g transform="translate(393.34976 282.920073) scale(0.1 -0.1)">
       <use xlink:href="#DejaVuSans-44"/>
       <use xlink:href="#DejaVuSans-61" x="77.001953"/>
       <use xlink:href="#DejaVuSans-79" x="138.28125"/>
       <use xlink:href="#DejaVuSans-20" x="197.460938"/>
       <use xlink:href="#DejaVuSans-32" x="229.248047"/>
       <use xlink:href="#DejaVuSans-30" x="292.871094"/>
      </g>
     </g>
    </g>
   </g>
   <g id="matplotlib.axis_8">
    <g id="ytick_13">
     <g id="line2d_28">
      <g>
       <use xlink:href="#m590f6bcb4c" x="238.053432" y="246.57832" style="stroke: #000000; stroke-width: 0.8"/>
      </g>
     </g>
    </g>
    <g id="ytick_14">
     <g id="line2d_29">
      <g>
       <use xlink:href="#m590f6bcb4c" x="238.053432" y="220.318277" style="stroke: #000000; stroke-width: 0.8"/>
      </g>
     </g>
    </g>
    <g id="ytick_15">
     <g id="line2d_30">
      <g>
       <use xlink:href="#m590f6bcb4c" x="238.053432" y="194.058235" style="stroke: #000000; stroke-width: 0.8"/>
      </g>
     </g>
    </g>
    <g id="ytick_16">
     <g id="line2d_31">
      <g>
       <use xlink:href="#m590f6bcb4c" x="238.053432" y="167.798193" style="stroke: #000000; stroke-width: 0.8"/>
      </g>
     </g>
    </g>
   </g>
   <g id="line2d_32">
    <path d="M 245.903803 225.202647 
L 254.167351 204.824853 
L 262.430899 234.603739 
L 270.694447 203.45933 
L 278.957994 205.192492 
L 287.221542 236.021782 
L 295.48509 199.730404 
L 303.748638 201.726168 
L 312.012186 228.721493 
L 320.275734 229.614335 
L 328.539281 234.183579 
L 336.802829 228.40637 
L 345.066377 235.339022 
L 353.329925 211.652465 
L 361.593473 216.32675 
L 369.857021 225.360206 
L 378.120569 245.895558 
L 386.384116 256.767217 
L 394.647664 250.727406 
L 402.911212 229.771894 
" clip-path="url(#p845e5b3c2c)" style="fill: none; stroke: #e69f00; stroke-width: 1.5; stroke-linecap: square"/>
   </g>
   <g id="patch_18">
    <path d="M 238.053432 268.321635 
L 238.053432 147.00024 
" style="fill: none; stroke: #000000; stroke-width: 0.8; stroke-linejoin: miter; stroke-linecap: square"/>
   </g>
   <g id="patch_19">
    <path d="M 411.17476 268.321635 
L 411.17476 147.00024 
" style="fill: none; stroke: #000000; stroke-width: 0.8; stroke-linejoin: miter; stroke-linecap: square"/>
   </g>
   <g id="patch_20">
    <path d="M 238.053432 268.321635 
L 411.17476 268.321635 
" style="fill: none; stroke: #000000; stroke-width: 0.8; stroke-linejoin: miter; stroke-linecap: square"/>
   </g>
   <g id="patch_21">
    <path d="M 238.053432 147.00024 
L 411.17476 147.00024 
" style="fill: none; stroke: #000000; stroke-width: 0.8; stroke-linejoin: miter; stroke-linecap: square"/>
   </g>
  </g>
  <g id="text_21">
   <!-- Wind speed ($\frac{m}{s}$) -->
   <g transform="translate(12.96024 190.68) rotate(-90) scale(0.12 -0.12)">
    <defs>
     <path id="DejaVuSans-57" d="M 213 4666 
L 850 4666 
L 1831 722 
L 2809 4666 
L 3519 4666 
L 4500 722 
L 5478 4666 
L 6119 4666 
L 4947 0 
L 4153 0 
L 3169 4050 
L 2175 0 
L 1381 0 
L 213 4666 
z
" transform="scale(0.015625)"/>
     <path id="DejaVuSans-69" d="M 603 3500 
L 1178 3500 
L 1178 0 
L 603 0 
L 603 3500 
z
M 603 4863 
L 1178 4863 
L 1178 4134 
L 603 4134 
L 603 4863 
z
" transform="scale(0.015625)"/>
     <path id="DejaVuSans-6e" d="M 3513 2113 
L 3513 0 
L 2938 0 
L 2938 2094 
Q 2938 2591 2744 2837 
Q 2550 3084 2163 3084 
Q 1697 3084 1428 2787 
Q 1159 2491 1159 1978 
L 1159 0 
L 581 0 
L 581 3500 
L 1159 3500 
L 1159 2956 
Q 1366 3272 1645 3428 
Q 1925 3584 2291 3584 
Q 2894 3584 3203 3211 
Q 3513 2838 3513 2113 
z
" transform="scale(0.015625)"/>
     <path id="DejaVuSans-64" d="M 2906 2969 
L 2906 4863 
L 3481 4863 
L 3481 0 
L 2906 0 
L 2906 525 
Q 2725 213 2448 61 
Q 2172 -91 1784 -91 
Q 1150 -91 751 415 
Q 353 922 353 1747 
Q 353 2572 751 3078 
Q 1150 3584 1784 3584 
Q 2172 3584 2448 3432 
Q 2725 3281 2906 2969 
z
M 947 1747 
Q 947 1113 1208 752 
Q 1469 391 1925 391 
Q 2381 391 2643 752 
Q 2906 1113 2906 1747 
Q 2906 2381 2643 2742 
Q 2381 3103 1925 3103 
Q 1469 3103 1208 2742 
Q 947 2381 947 1747 
z
" transform="scale(0.015625)"/>
     <path id="DejaVuSans-73" d="M 2834 3397 
L 2834 2853 
Q 2591 2978 2328 3040 
Q 2066 3103 1784 3103 
Q 1356 3103 1142 2972 
Q 928 2841 928 2578 
Q 928 2378 1081 2264 
Q 1234 2150 1697 2047 
L 1894 2003 
Q 2506 1872 2764 1633 
Q 3022 1394 3022 966 
Q 3022 478 2636 193 
Q 2250 -91 1575 -91 
Q 1294 -91 989 -36 
Q 684 19 347 128 
L 347 722 
Q 666 556 975 473 
Q 1284 391 1588 391 
Q 1994 391 2212 530 
Q 2431 669 2431 922 
Q 2431 1156 2273 1281 
Q 2116 1406 1581 1522 
L 1381 1569 
Q 847 1681 609 1914 
Q 372 2147 372 2553 
Q 372 3047 722 3315 
Q 1072 3584 1716 3584 
Q 2034 3584 2315 3537 
Q 2597 3491 2834 3397 
z
" transform="scale(0.015625)"/>
     <path id="DejaVuSans-70" d="M 1159 525 
L 1159 -1331 
L 581 -1331 
L 581 3500 
L 1159 3500 
L 1159 2969 
Q 1341 3281 1617 3432 
Q 1894 3584 2278 3584 
Q 2916 3584 3314 3078 
Q 3713 2572 3713 1747 
Q 3713 922 3314 415 
Q 2916 -91 2278 -91 
Q 1894 -91 1617 61 
Q 1341 213 1159 525 
z
M 3116 1747 
Q 3116 2381 2855 2742 
Q 2594 3103 2138 3103 
Q 1681 3103 1420 2742 
Q 1159 2381 1159 1747 
Q 1159 1113 1420 752 
Q 1681 391 2138 391 
Q 2594 391 2855 752 
Q 3116 1113 3116 1747 
z
" transform="scale(0.015625)"/>
     <path id="DejaVuSans-65" d="M 3597 1894 
L 3597 1613 
L 953 1613 
Q 991 1019 1311 708 
Q 1631 397 2203 397 
Q 2534 397 2845 478 
Q 3156 559 3463 722 
L 3463 178 
Q 3153 47 2828 -22 
Q 2503 -91 2169 -91 
Q 1331 -91 842 396 
Q 353 884 353 1716 
Q 353 2575 817 3079 
Q 1281 3584 2069 3584 
Q 2775 3584 3186 3129 
Q 3597 2675 3597 1894 
z
M 3022 2063 
Q 3016 2534 2758 2815 
Q 2500 3097 2075 3097 
Q 1594 3097 1305 2825 
Q 1016 2553 972 2059 
L 3022 2063 
z
" transform="scale(0.015625)"/>
     <path id="DejaVuSans-28" d="M 1984 4856 
Q 1566 4138 1362 3434 
Q 1159 2731 1159 2009 
Q 1159 1288 1364 580 
Q 1569 -128 1984 -844 
L 1484 -844 
Q 1016 -109 783 600 
Q 550 1309 550 2009 
Q 550 2706 781 3412 
Q 1013 4119 1484 4856 
L 1984 4856 
z
" transform="scale(0.015625)"/>
     <path id="DejaVuSans-Oblique-6d" d="M 5747 2113 
L 5338 0 
L 4763 0 
L 5166 2094 
Q 5191 2228 5203 2325 
Q 5216 2422 5216 2491 
Q 5216 2772 5059 2928 
Q 4903 3084 4622 3084 
Q 4203 3084 3875 2770 
Q 3547 2456 3450 1953 
L 3066 0 
L 2491 0 
L 2900 2094 
Q 2925 2209 2937 2307 
Q 2950 2406 2950 2484 
Q 2950 2769 2794 2926 
Q 2638 3084 2363 3084 
Q 1938 3084 1609 2770 
Q 1281 2456 1184 1953 
L 800 0 
L 225 0 
L 909 3500 
L 1484 3500 
L 1375 2956 
Q 1609 3263 1923 3423 
Q 2238 3584 2597 3584 
Q 2978 3584 3223 3384 
Q 3469 3184 3519 2828 
Q 3781 3197 4126 3390 
Q 4472 3584 4856 3584 
Q 5306 3584 5551 3325 
Q 5797 3066 5797 2591 
Q 5797 2488 5784 2364 
Q 5772 2241 5747 2113 
z
" transform="scale(0.015625)"/>
     <path id="DejaVuSans-Oblique-73" d="M 3200 3397 
L 3091 2853 
Q 2863 2978 2609 3040 
Q 2356 3103 2088 3103 
Q 1634 3103 1373 2948 
Q 1113 2794 1113 2528 
Q 1113 2219 1719 2053 
Q 1766 2041 1788 2034 
L 1972 1978 
Q 2547 1819 2739 1644 
Q 2931 1469 2931 1166 
Q 2931 609 2489 259 
Q 2047 -91 1331 -91 
Q 1053 -91 747 -37 
Q 441 16 72 128 
L 184 722 
Q 500 559 806 475 
Q 1113 391 1394 391 
Q 1816 391 2080 572 
Q 2344 753 2344 1031 
Q 2344 1331 1650 1516 
L 1591 1531 
L 1394 1581 
Q 956 1697 753 1886 
Q 550 2075 550 2369 
Q 550 2928 970 3256 
Q 1391 3584 2113 3584 
Q 2397 3584 2667 3537 
Q 2938 3491 3200 3397 
z
" transform="scale(0.015625)"/>
     <path id="DejaVuSans-29" d="M 513 4856 
L 1013 4856 
Q 1481 4119 1714 3412 
Q 1947 2706 1947 2009 
Q 1947 1309 1714 600 
Q 1481 -109 1013 -844 
L 513 -844 
Q 928 -128 1133 580 
Q 1338 1288 1338 2009 
Q 1338 2731 1133 3434 
Q 928 4138 513 4856 
z
" transform="scale(0.015625)"/>
    </defs>
    <use xlink:href="#DejaVuSans-57" transform="translate(0 0.003125)"/>
    <use xlink:href="#DejaVuSans-69" transform="translate(98.876953 0.003125)"/>
    <use xlink:href="#DejaVuSans-6e" transform="translate(126.660156 0.003125)"/>
    <use xlink:href="#DejaVuSans-64" transform="translate(190.039062 0.003125)"/>
    <use xlink:href="#DejaVuSans-20" transform="translate(253.515625 0.003125)"/>
    <use xlink:href="#DejaVuSans-73" transform="translate(285.302734 0.003125)"/>
    <use xlink:href="#DejaVuSans-70" transform="translate(337.402344 0.003125)"/>
    <use xlink:href="#DejaVuSans-65" transform="translate(400.878906 0.003125)"/>
    <use xlink:href="#DejaVuSans-65" transform="translate(462.402344 0.003125)"/>
    <use xlink:href="#DejaVuSans-64" transform="translate(523.925781 0.003125)"/>
    <use xlink:href="#DejaVuSans-20" transform="translate(587.402344 0.003125)"/>
    <use xlink:href="#DejaVuSans-28" transform="translate(619.189453 0.003125)"/>
    <use xlink:href="#DejaVuSans-Oblique-6d" transform="translate(658.203125 43.8) scale(0.7)"/>
    <use xlink:href="#DejaVuSans-Oblique-73" transform="translate(674.203125 -26.65) scale(0.7)"/>
    <use xlink:href="#DejaVuSans-29" transform="translate(738.891602 0.003125)"/>
    <path d="M 658.203125 18.8 
L 658.203125 25.05 
L 726.391602 25.05 
L 726.391602 18.8 
L 658.203125 18.8 
z
"/>
   </g>
  </g>
 </g>
 <defs>
  <clipPath id="p840fe19bec">
   <rect x="42.04572" y="3.00024" width="173.121328" height="121.321395"/>
  </clipPath>
  <clipPath id="p47887bcc55">
   <rect x="238.053432" y="3.00024" width="173.121328" height="121.321395"/>
  </clipPath>
  <clipPath id="p5ac3e8c404">
   <rect x="42.04572" y="147.00024" width="173.121328" height="121.321395"/>
  </clipPath>
  <clipPath id="p845e5b3c2c">
   <rect x="238.053432" y="147.00024" width="173.121328" height="121.321395"/>
  </clipPath>
 </defs>
</svg>
